<?xml version="1.0" encoding="utf-8"?>
<!-- Generator: Adobe Illustrator 21.0.0, SVG Export Plug-In . SVG Version: 6.00 Build 0)  -->
<svg version="1.1" id="Слой_1" xmlns="http://www.w3.org/2000/svg" xmlns:xlink="http://www.w3.org/1999/xlink" x="0px" y="0px"
	 width="485px" height="240px" viewBox="0 0 485 240" style="enable-background:new 0 0 485 240;" xml:space="preserve">
<style type="text/css">
	.st0{fill:#FFFFFF;}
	.st1{fill:#FFFFFF;stroke:#FFFFFF;stroke-width:2;stroke-miterlimit:10;}
	.st2{fill:#FFFFFF;stroke:#FFFFFF;stroke-miterlimit:10;}
	.st3{fill:none;stroke:#FFFFFF;stroke-width:2;stroke-miterlimit:10;}
	.st4{fill:none;stroke:#FFFFFF;stroke-width:2;stroke-linecap:round;stroke-linejoin:round;}
	.st5{fill:none;stroke:#FFFFFF;stroke-width:1.937;stroke-linecap:round;stroke-miterlimit:10;}
</style>
<path class="st0" d="M69.3,16.7v8.5h-3.6c-2.7,0-4.8,2.2-4.8,4.8v24.2c0,2.7,2.2,4.8,4.8,4.8h38.7c2.7,0,4.8-2.2,4.8-4.8V30
	c0-2.7-2.2-4.8-4.8-4.8h-3.6v-8.5C100.7,8,93.7,1,85,1S69.3,8,69.3,16.7z M75.3,25.2v-8.5c0-5.3,4.3-9.7,9.7-9.7s9.7,4.3,9.7,9.7
	v8.5H75.3z M80.2,38.5c0-2.7,2.2-4.8,4.8-4.8s4.8,2.2,4.8,4.8c0,1.7-0.9,3.2-2.2,4.1c0,0,0.5,2.9,1,6.2c0,1-0.8,1.8-1.8,1.8h-3.6
	c-1,0-1.8-0.8-1.8-1.8l1-6.2C81,41.7,80.2,40.2,80.2,38.5z"/>
<path id="Arrow_Left_1_" class="st0" d="M58.8,52.8c0.1-0.6,2-15.2-6.6-25.3c-5.3-6.2-13.4-9.6-24-9.9L28.1,7.4c0-0.7-0.4-1.3-1-1.6
	S25.7,5.6,25.2,6L1.7,25.3C1.2,25.7,1,26.2,1,26.7s0.2,1.1,0.7,1.4l23.5,19.5c0.5,0.4,1.3,0.5,1.9,0.2s1-0.9,1-1.6l0.1-10.4
	c25.4,0,27.2,16.3,27.3,16.9c0.1,0.9,0.7,1.6,1.6,1.7c0,0,0,0,0.1,0C58,54.4,58.6,53.7,58.8,52.8z M25,32.7
	c-0.3,0.3-0.5,0.8-0.5,1.3v8.4L5.7,26.7l18.8-15.5v8.1c0,1,0.8,1.8,1.8,1.8c10.3,0,18.2,3,23.1,8.7c3.7,4.3,5.4,9.5,5.9,13.8
	c-4-5.4-10.9-11.5-29-11.5l0,0C25.8,32.1,25.4,32.3,25,32.7z"/>
<g>
	<path class="st0" d="M125.1,54.9h45.6V21.7h-45.6V54.9z M137.5,15.5V6.2c0-0.3-0.1-0.6-0.3-0.7c-0.2-0.2-0.4-0.3-0.7-0.3h-2.1
		c-0.3,0-0.6,0.1-0.7,0.3c-0.2,0.2-0.3,0.4-0.3,0.7v9.3c0,0.3,0.1,0.6,0.3,0.7s0.4,0.3,0.7,0.3h2.1c0.3,0,0.6-0.1,0.7-0.3
		S137.5,15.8,137.5,15.5z M162.4,15.5V6.2c0-0.3-0.1-0.6-0.3-0.7c-0.2-0.2-0.4-0.3-0.7-0.3h-2.1c-0.3,0-0.6,0.1-0.7,0.3
		c-0.2,0.2-0.3,0.4-0.3,0.7v9.3c0,0.3,0.1,0.6,0.3,0.7s0.4,0.3,0.7,0.3h2.1c0.3,0,0.6-0.1,0.7-0.3C162.3,16.1,162.4,15.8,162.4,15.5
		z M174.8,13.4v41.4c0,1.1-0.4,2.1-1.2,2.9s-1.8,1.2-2.9,1.2h-45.6c-1.1,0-2.1-0.4-2.9-1.2s-1.2-1.8-1.2-2.9V13.4
		c0-1.1,0.4-2.1,1.2-2.9c0.8-0.8,1.8-1.2,2.9-1.2h4.1V6.2c0-1.4,0.5-2.6,1.5-3.7c1-1,2.2-1.5,3.7-1.5h2.1c1.4,0,2.6,0.5,3.7,1.5
		c1,1,1.5,2.2,1.5,3.7v3.1h12.4V6.2c0-1.4,0.5-2.6,1.5-3.7c1-1,2.2-1.5,3.7-1.5h2.1c1.4,0,2.6,0.5,3.7,1.5c1,1,1.5,2.2,1.5,3.7v3.1
		h4.1c1.1,0,2.1,0.4,2.9,1.2S174.8,12.3,174.8,13.4z"/>
	<g>
		<path class="st0" d="M142,45c0.8,0.5,2.7,1.3,4.7,1.3c3.7,0,4.8-2.3,4.7-4.1c0-2.9-2.7-4.2-5.4-4.2h-1.6v-2.1h1.6
			c2.1,0,4.7-1.1,4.7-3.6c0-1.7-1.1-3.2-3.7-3.2c-1.7,0-3.3,0.7-4.2,1.4l-0.7-2.1c1.1-0.8,3.2-1.6,5.5-1.6c4.1,0,6,2.5,6,5
			c0,2.2-1.3,4-3.9,4.9v0.1c2.6,0.5,4.7,2.5,4.7,5.4c0,3.4-2.6,6.3-7.7,6.3c-2.4,0-4.4-0.7-5.5-1.4L142,45z"/>
	</g>
</g>
<g id="document_x5F_text">
	<polygon class="st0" points="195.5,40.9 195.5,37.3 217.3,37.3 217.3,40.9 	"/>
	<polygon class="st0" points="195.5,26.4 195.5,22.8 224.5,22.8 224.5,26.4 	"/>
	<polygon class="st0" points="195.5,33.6 195.5,30 224.5,30 224.5,33.6 	"/>
	<path class="st0" d="M221.6,1h-33.4v58h43.5V11.1L221.6,1z M220.9,5.4l6.5,6.5h-6.5V5.4z M191.9,55.4V4.6h25.4v10.9h10.9v39.9
		H191.9z"/>
</g>
<path class="st0" d="M270,1c-16,0-29,13-29,29s13,29,29,29s29-13,29-29S286,1,270,1z M270,55.8c-14.2,0-25.8-11.5-25.8-25.8
	S255.8,4.2,270,4.2c14.2,0,25.8,11.5,25.8,25.8l0,0C295.8,44.2,284.2,55.8,270,55.8z"/>
<polygon class="st0" points="266,35 259.8,28.8 257,31.5 266,40.5 284.7,21.7 282,19 "/>
<path class="st0" d="M315.5,54.2h29V39.7h-29V54.2z M349.3,54.2h4.8V20.3c0-0.4-0.1-0.8-0.4-1.5s-0.5-1.1-0.8-1.3L342.4,7
	c-0.3-0.3-0.7-0.5-1.3-0.8c-0.6-0.3-1.1-0.4-1.5-0.4v15.7c0,1-0.4,1.9-1.1,2.6s-1.6,1.1-2.6,1.1h-21.8c-1,0-1.9-0.4-2.6-1.1
	s-1.1-1.6-1.1-2.6V5.8h-4.8v48.3h4.8V38.5c0-1,0.4-1.9,1.1-2.6s1.6-1.1,2.6-1.1h31.4c1,0,1.9,0.4,2.6,1.1s1.1,1.6,1.1,2.6
	L349.3,54.2L349.3,54.2z M334.8,19.1V7c0-0.3-0.1-0.6-0.4-0.8c-0.2-0.2-0.5-0.4-0.8-0.4h-7.3c-0.3,0-0.6,0.1-0.8,0.4
	c-0.2,0.2-0.4,0.5-0.4,0.8v12.1c0,0.3,0.1,0.6,0.4,0.8s0.5,0.4,0.8,0.4h7.3c0.3,0,0.6-0.1,0.8-0.4S334.8,19.5,334.8,19.1z M359,20.3
	v35c0,1-0.4,1.9-1.1,2.6c-0.7,0.7-1.6,1.1-2.6,1.1h-50.8c-1,0-1.9-0.4-2.6-1.1c-0.7-0.7-1.1-1.6-1.1-2.6V4.6c0-1,0.4-1.9,1.1-2.6
	s1.6-1.1,2.6-1.1h35c1,0,2.1,0.3,3.3,0.8c1.2,0.5,2.2,1.1,2.9,1.8l10.6,10.6c0.7,0.7,1.3,1.7,1.8,2.9C358.7,18.2,359,19.3,359,20.3z
	"/>
<g>
	<path class="st0" d="M403.2,3.1c4-0.7,8.1-1.4,12.3-2.1c-0.8,4.1-1.6,8.2-2.4,12.4c-0.7-0.7-1.5-1.4-2.1-2.1
		c-0.4-0.5-0.7-0.4-1.1,0c-2.6,2.6-5.3,5.2-7.9,7.8c-4.7,4.6-9.5,9.2-14.2,13.8c-0.4,0.4-0.6,0.3-0.9,0c-2-1.9-4-3.8-5.9-5.7
		c-0.4-0.4-0.6-0.4-1,0c-4.3,4.4-8.7,8.7-13,13c-0.4,0.4-0.6,0.5-1,0c-1.3-1.3-2.6-2.5-3.9-3.8c-0.3-0.3-0.3-0.4,0-0.7
		c6.1-6,12.1-12,18.2-18.1c0.4-0.4,0.6-0.2,0.9,0.1c2,1.8,3.9,3.7,5.9,5.6c0.3,0.3,0.5,0.3,0.8,0c5.4-5.2,10.8-10.4,16.2-15.6
		c0.5-0.5,0.9-0.9,1.4-1.3s0.4-0.6,0-1c-0.8-0.7-1.5-1.4-2.2-2.1C403.1,3.3,403.1,3.2,403.2,3.1z"/>
	<rect x="360.9" y="44.3" class="st0" width="15.1" height="14.7"/>
	<rect x="380.5" y="37.4" class="st0" width="15.1" height="21.6"/>
	<rect x="400" y="27.9" class="st0" width="15.1" height="31.1"/>
</g>
<path class="st0" d="M459.7,30c0-3.1-2.5-5.5-5.5-5.5s-5.5,2.5-5.5,5.5s2.5,5.5,5.5,5.5S459.7,33.1,459.7,30z M454.1,5.1
	c-13.7,0-24.9,11.1-24.9,24.9H421l11,11l11-11h-8.3c0-10.7,8.7-19.3,19.3-19.3c10.7,0,19.3,8.7,19.3,19.3s-8.7,19.3-19.3,19.3
	c-4.2,0-8-1.3-11.2-3.6l-3.9,4c4.2,3.2,9.4,5.2,15.1,5.2c13.7,0,24.9-11.1,24.9-24.9S467.9,5.1,454.1,5.1z"/>
<g>
	<path class="st0" d="M29,61H6.5c-3.3,0-5.9,2.7-5.9,5.9v46.2c0,3.3,2.7,5.9,5.9,5.9H29c3.3,0,5.9-2.7,5.9-5.9V66.9
		C34.9,63.7,32.3,61,29,61z M17.8,116.6c-2.3,0-4.1-1.3-4.1-3s1.9-3,4.1-3c2.3,0,4.1,1.3,4.1,3C21.9,115.3,20,116.6,17.8,116.6z
		 M30.2,107.8H5.3V68.7h24.9V107.8z"/>
</g>
<g id="layer_copy">
	<path class="st1" d="M108.5,102.3c-2.1-4.1-4.9-7.6-8.5-10.5c3-3.3,4.9-7.6,4.9-12.4c0-10.1-8.3-18.3-18.4-18.3
		s-18.4,8.2-18.4,18.3c0,4.8,1.9,9.2,4.9,12.4c-3.6,2.9-6.4,6.5-8.5,10.5c-2.4,4.7-3.6,9.9-3.6,15.5c0,0.7,0.5,1.2,1.2,1.2
		s1.2-0.5,1.2-1.2c0-9.8,4.1-18.3,11.4-24.3c3.2,2.6,7.3,4.2,11.7,4.2c4.4,0,8.5-1.6,11.7-4.2c7.4,5.9,11.5,14.5,11.5,24.3
		c0,0.7,0.5,1.2,1.2,1.2s1.2-0.5,1.2-1.2C112.1,112.2,110.9,107,108.5,102.3z M70.6,79.3c0-8.8,7.2-15.9,16-15.9s16,7.1,16,15.9
		s-7.2,15.9-16,15.9S70.6,88.1,70.6,79.3z"/>
</g>
<path class="st2" d="M169.4,81.3c-0.7,0.7-8.9-0.1-9.8-0.9c-0.9-0.9-1.6-8.8-0.8-9.7c0.9-0.9,7.8-7.8,7.8-7.8s0.8-0.9-0.4-0.9
	c-3.8,0-11.6,0.1-15.4,3.8l-0.8,0.8c-4.9,4.9-4.8,12.6,0,17.5l5.8,5.8c4.8,4.8,12.5,5,17.4,0.1l0.8-0.8c3.7-3.6,3.8-11.4,3.8-15.3
	c0-1.2-0.9-0.4-0.9-0.4S170,80.6,169.4,81.3z"/>
<path class="st2" d="M149.1,82.5l-24.9,22.8c-1.8,1.8-4.1,6.5,0,10.6s8.8,1.8,10.6,0c0,0,22-24.9,22.6-24.7"/>
<g id="Expanded">
	<g>
		<g>
			<path class="st0" d="M210,84.7c-14.8,0-26.4-5.2-26.4-11.9c0-6.7,11.6-11.9,26.4-11.9s26.4,5.2,26.4,11.9S224.8,84.7,210,84.7z
				 M210,63.6c-11.2,0-23.7,3.8-23.7,9.2S198.8,82,210,82s23.7-3.8,23.7-9.2S221.2,63.6,210,63.6z"/>
		</g>
		<g>
			<path class="st0" d="M210,95.3c-14.8,0-26.4-5.2-26.4-11.9V72.9c0-0.7,0.6-1.3,1.3-1.3s1.3,0.6,1.3,1.3v10.5
				c0,5.4,12.5,9.2,23.7,9.2s23.7-3.8,23.7-9.2V72.9c0-0.7,0.6-1.3,1.3-1.3s1.3,0.6,1.3,1.3v10.5C236.4,90.1,224.8,95.3,210,95.3z"
				/>
		</g>
		<g>
			<path class="st0" d="M210,107.1c-14.8,0-26.4-5.2-26.4-11.9V83.4c0-0.7,0.6-1.3,1.3-1.3s1.3,0.6,1.3,1.3v11.9
				c0,5.4,12.5,9.2,23.7,9.2s23.7-3.8,23.7-9.2V83.4c0-0.7,0.6-1.3,1.3-1.3s1.3,0.6,1.3,1.3v11.9C236.4,101.9,224.8,107.1,210,107.1
				z"/>
		</g>
		<g>
			<path class="st0" d="M210,119c-14.8,0-26.4-5.2-26.4-11.9V95.3c0-0.7,0.6-1.3,1.3-1.3s1.3,0.6,1.3,1.3v11.9
				c0,5.4,12.5,9.2,23.7,9.2s23.7-3.8,23.7-9.2V95.3c0-0.7,0.6-1.3,1.3-1.3s1.3,0.6,1.3,1.3v11.9C236.4,113.8,224.8,119,210,119z"/>
		</g>
	</g>
</g>
<g>
	<path class="st0" d="M282.9,90c0-1.8-1.4-3.2-3.2-3.2H270c-1.8,0-3.2,1.4-3.2,3.2s1.5,3.2,3.2,3.2h9.7
		C281.4,93.2,282.9,91.8,282.9,90z"/>
</g>
<g>
	<path class="st0" d="M270,67.4c12.4,0,22.6,10.1,22.6,22.6s-10.1,22.6-22.6,22.6s-22.6-10.1-22.6-22.6S257.6,67.4,270,67.4 M270,61
		c-16,0-29,13-29,29s13,29,29,29s29-13,29-29S286,61,270,61z"/>
</g>
<g>
	<path class="st0" d="M273.2,80.3c0-1.8-1.5-3.2-3.2-3.2s-3.2,1.4-3.2,3.2V90c0,1.8,1.5,3.2,3.2,3.2s3.2-1.4,3.2-3.2V80.3z"/>
</g>
<g>
	<path class="st0" d="M270,73.9c8.9,0,16.1,7.2,16.1,16.1s-7.2,16.1-16.1,16.1s-16.1-7.2-16.1-16.1S261.1,73.9,270,73.9 M270,70.7
		c-10.7,0-19.3,8.7-19.3,19.3c0,10.7,8.7,19.3,19.3,19.3s19.3-8.7,19.3-19.3C289.3,79.3,280.7,70.7,270,70.7z"/>
</g>
<path class="st0" d="M338.5,87.8l-12-12c-1.1-1.1-2.9-1.1-4,0l-1,1c-1.1,1.1-1.1,2.9,0,4l9.2,9.2l-9.2,9.2c-1.1,1.1-1.1,2.9,0,4l1,1
	c1.1,1.1,2.9,1.1,4,0l12-12c0.6-0.6,0.9-1.4,0.8-2.2C339.4,89.2,339.1,88.4,338.5,87.8z"/>
<g>
	<path class="st0" d="M378.3,64.9h-3.9v-2.3c0-0.4,0.2-0.8,0.5-1.1s0.7-0.5,1.1-0.5h0.7c0.4,0,0.8,0.2,1.1,0.5
		c0.3,0.3,0.5,0.7,0.5,1.1L378.3,64.9L378.3,64.9z M385.1,62.6c0-0.4-0.2-0.8-0.5-1.1s-0.7-0.5-1.1-0.5h-0.7c-0.4,0-0.8,0.2-1.1,0.5
		c-0.3,0.3-0.5,0.7-0.5,1.1v2.3h3.9C385.1,64.9,385.1,62.6,385.1,62.6z M392,62.6c0-0.4-0.2-0.8-0.5-1.1s-0.7-0.5-1.1-0.5h-0.7
		c-0.4,0-0.8,0.2-1.1,0.5c-0.3,0.3-0.5,0.7-0.5,1.1v2.3h3.9L392,62.6L392,62.6z M398.8,62.6c0-0.4-0.2-0.8-0.5-1.1s-0.7-0.5-1.1-0.5
		h-0.7c-0.4,0-0.8,0.2-1.1,0.5c-0.3,0.3-0.5,0.7-0.5,1.1v2.3h3.9L398.8,62.6L398.8,62.6z M405.7,62.6c0-0.4-0.2-0.8-0.5-1.1
		s-0.7-0.5-1.1-0.5h-0.7c-0.4,0-0.8,0.2-1.1,0.5c-0.3,0.3-0.5,0.7-0.5,1.1v2.3h3.9L405.7,62.6L405.7,62.6z M362.6,101.7
		c-0.4,0-0.8,0.2-1.1,0.5c-0.3,0.3-0.5,0.7-0.5,1.1v0.7c0,0.4,0.2,0.8,0.5,1.1c0.3,0.3,0.7,0.5,1.1,0.5h2.3v-3.9
		C364.9,101.7,362.6,101.7,362.6,101.7z M362.6,94.9c-0.4,0-0.8,0.2-1.1,0.5c-0.3,0.3-0.5,0.7-0.5,1.1v0.7c0,0.4,0.2,0.8,0.5,1.1
		c0.3,0.3,0.7,0.5,1.1,0.5h2.3v-3.9L362.6,94.9L362.6,94.9z M362.6,88c-0.4,0-0.8,0.2-1.1,0.5c-0.3,0.3-0.5,0.7-0.5,1.1v0.7
		c0,0.4,0.2,0.8,0.5,1.1c0.3,0.3,0.7,0.5,1.1,0.5h2.3V88H362.6z M362.6,81.2c-0.4,0-0.8,0.2-1.1,0.5c-0.3,0.3-0.5,0.7-0.5,1.1v0.7
		c0,0.4,0.2,0.8,0.5,1.1c0.3,0.3,0.7,0.5,1.1,0.5h2.3v-3.9C364.9,81.2,362.6,81.2,362.6,81.2z M362.6,74.3c-0.4,0-0.8,0.2-1.1,0.5
		c-0.3,0.3-0.5,0.7-0.5,1.1v0.7c0,0.4,0.2,0.8,0.5,1.1c0.3,0.3,0.7,0.5,1.1,0.5h2.3v-3.9C364.9,74.3,362.6,74.3,362.6,74.3z
		 M415.1,101.7v3.9h2.3c0.4,0,0.8-0.2,1.1-0.5c0.3-0.3,0.5-0.7,0.5-1.1v-0.7c0-0.4-0.2-0.8-0.5-1.1c-0.3-0.3-0.7-0.5-1.1-0.5
		L415.1,101.7L415.1,101.7z M415.1,94.9v3.9h2.3c0.4,0,0.8-0.2,1.1-0.5c0.3-0.3,0.5-0.7,0.5-1.1v-0.7c0-0.4-0.2-0.8-0.5-1.1
		c-0.3-0.3-0.7-0.5-1.1-0.5C417.4,94.9,415.1,94.9,415.1,94.9z M415.1,88v4h2.3c0.4,0,0.8-0.2,1.1-0.5c0.3-0.3,0.5-0.7,0.5-1.1v-0.7
		c0-0.4-0.2-0.8-0.5-1.1c-0.3-0.3-0.7-0.5-1.1-0.5C417.4,88,415.1,88,415.1,88z M415.1,81.2v3.9h2.3c0.4,0,0.8-0.2,1.1-0.5
		c0.3-0.3,0.5-0.7,0.5-1.1v-0.7c0-0.4-0.2-0.8-0.5-1.1c-0.3-0.3-0.7-0.5-1.1-0.5C417.4,81.2,415.1,81.2,415.1,81.2z M415.1,74.3v3.9
		h2.3c0.4,0,0.8-0.2,1.1-0.5c0.3-0.3,0.5-0.7,0.5-1.1v-0.7c0-0.4-0.2-0.8-0.5-1.1c-0.3-0.3-0.7-0.5-1.1-0.5
		C417.4,74.3,415.1,74.3,415.1,74.3z M378.3,115.1h-3.9v2.3c0,0.4,0.2,0.8,0.5,1.1c0.3,0.3,0.7,0.5,1.1,0.5h0.7
		c0.4,0,0.8-0.2,1.1-0.5c0.3-0.3,0.5-0.7,0.5-1.1L378.3,115.1L378.3,115.1z M385.1,115.1h-3.9v2.3c0,0.4,0.2,0.8,0.5,1.1
		c0.3,0.3,0.7,0.5,1.1,0.5h0.7c0.4,0,0.8-0.2,1.1-0.5c0.3-0.3,0.5-0.7,0.5-1.1L385.1,115.1L385.1,115.1z M392,115.1h-4v2.3
		c0,0.4,0.2,0.8,0.5,1.1c0.3,0.3,0.7,0.5,1.1,0.5h0.7c0.4,0,0.8-0.2,1.1-0.5c0.3-0.3,0.5-0.7,0.5-1.1L392,115.1L392,115.1z
		 M398.8,115.1h-3.9v2.3c0,0.4,0.2,0.8,0.5,1.1c0.3,0.3,0.7,0.5,1.1,0.5h0.7c0.4,0,0.8-0.2,1.1-0.5c0.3-0.3,0.5-0.7,0.5-1.1
		L398.8,115.1L398.8,115.1z M405.7,115.1h-3.9v2.3c0,0.4,0.2,0.8,0.5,1.1c0.3,0.3,0.7,0.5,1.1,0.5h0.7c0.4,0,0.8-0.2,1.1-0.5
		c0.3-0.3,0.5-0.7,0.5-1.1L405.7,115.1L405.7,115.1z"/>
	<path class="st0" d="M375.1,70.8l-4.2,4.2v29.9l4.2,4.2H405l4.2-4.2V75.1l-4.2-4.2C404.9,70.8,375.1,70.8,375.1,70.8z M412.8,73.1
		l-5.9-5.9c-0.2-0.2-0.5-0.3-0.8-0.3h-32.2c-0.3,0-0.6,0.1-0.8,0.3l-5.9,5.9c-0.2,0.2-0.3,0.5-0.3,0.8v32.2c0,0.3,0.1,0.6,0.3,0.8
		l5.9,5.9c0.2,0.2,0.5,0.3,0.8,0.3h32.2c0.3,0,0.6-0.1,0.8-0.3l5.9-5.9c0.2-0.2,0.3-0.5,0.3-0.8V73.9
		C413.1,73.6,413,73.3,412.8,73.1z M410.8,105.6l-5.2,5.2h-31.2l-5.2-5.2V74.4l5.2-5.2h31.2l5.2,5.2V105.6L410.8,105.6z"/>
</g>
<path class="st0" d="M454.8,105.5l-2,2c-0.1,0.1-0.2,0.1-0.3,0.1c-0.1,0-0.2,0-0.3-0.1l-14.1-14.1l-2,2c-0.1,0.1-0.2,0.1-0.3,0.1
	c-0.1,0-0.2,0-0.3-0.1c-0.1-0.1-0.1-0.2-0.1-0.3v-6.6c0-0.1,0-0.2,0.1-0.3c0.1-0.1,0.2-0.1,0.3-0.1h6.6c0.1,0,0.2,0,0.3,0.1
	c0.1,0.1,0.1,0.2,0.1,0.3c0,0.1,0,0.2-0.1,0.3l-2,2l14.1,14.1c0.1,0.1,0.1,0.2,0.1,0.3C455,105.3,454.9,105.4,454.8,105.5z
	 M464.5,89.6c-0.1,0.1-0.2,0.1-0.3,0.1h-6.6c-0.1,0-0.2,0-0.3-0.1c-0.1-0.1-0.1-0.2-0.1-0.3c0-0.1,0-0.2,0.1-0.3l2-2l-14.1-14.1
	c-0.1-0.1-0.1-0.2-0.1-0.3c0-0.1,0-0.2,0.1-0.3l2-2c0.1-0.1,0.2-0.1,0.3-0.1s0.2,0,0.3,0.1l14.1,14.1l2-2c0.1-0.1,0.2-0.1,0.3-0.1
	s0.2,0,0.3,0.1c0.1,0.1,0.1,0.2,0.1,0.3v6.5C464.6,89.4,464.6,89.5,464.5,89.6z"/>
<g>
	<path class="st0" d="M426.9,67.9c0-3.8,3.2-6.9,6.9-6.9c3.8,0,6.9,3.2,6.9,6.9c0,3.8-3.2,6.9-6.9,6.9S426.9,71.7,426.9,67.9z
		 M433.8,74.9c-9.7,0-12.8,7.9-12.8,7.9v3.9h25.7v-3.9C446.7,82.8,443.5,74.9,433.8,74.9z"/>
</g>
<g>
	<path class="st0" d="M459.3,99c0-3.8,3.2-6.9,6.9-6.9c3.8,0,6.9,3.2,6.9,6.9c0,3.8-3.2,6.9-6.9,6.9
		C462.4,105.9,459.3,102.7,459.3,99z M466.2,106c-9.7,0-12.8,7.9-12.8,7.9v3.9H479v-3.9C479,113.9,475.8,106,466.2,106z"/>
</g>
<g id="Livello_39">
	<path class="st0" d="M56.7,151.1c-0.3,6.5-2.8,12.5-7,17c-2.3-2.1-4.9-3.9-7.8-5.2c0.8-3.6,1.3-7.5,1.4-11.8
		C43.3,151.1,56.7,151.1,56.7,151.1z M56.7,148.9H43.3c-0.1-5-0.7-9.6-1.8-13.7c2.6-1.1,5-2.6,7.2-4.4
		C53.4,135.5,56.5,141.8,56.7,148.9 M47,129.3c-1.9,1.5-3.9,2.8-6.1,3.8c-1.3-3.9-3-7.1-5.1-9.3C40,124.8,43.8,126.7,47,129.3
		 M38.9,133.9c-2.5,0.9-5.1,1.4-7.8,1.5v-12C34.3,124.1,37.1,128.1,38.9,133.9 M31.1,137.6c2.9-0.1,5.8-0.7,8.4-1.6
		c1,3.8,1.5,8.2,1.6,12.9h-10C31.1,148.9,31.1,137.6,31.1,137.6z M31.1,151.1h10c-0.1,3.9-0.5,7.6-1.2,10.9c-2.8-1-5.8-1.6-8.9-1.7
		L31.1,151.1L31.1,151.1z M31.1,162.5c2.9,0.1,5.8,0.7,8.4,1.7c-1.8,6.9-4.8,11.7-8.4,12.5V162.5z M35.8,176.1
		c2.3-2.4,4.3-6.3,5.6-11.1c2.5,1.2,4.8,2.7,6.8,4.6C44.8,172.8,40.5,175.1,35.8,176.1 M28.9,176.6c-3.5-0.8-6.6-5.6-8.4-12.5
		c2.6-1,5.4-1.6,8.4-1.7V176.6z M28.9,160.3c-3.1,0.1-6.1,0.7-8.9,1.7c-0.7-3.3-1.1-7-1.2-10.9h10L28.9,160.3L28.9,160.3z
		 M28.9,148.9h-10c0.1-4.7,0.7-9.1,1.6-12.9c2.7,0.9,5.5,1.5,8.4,1.6V148.9L28.9,148.9z M28.9,135.4c-2.7-0.1-5.4-0.6-7.8-1.5
		c1.8-5.8,4.6-9.8,7.8-10.5C28.9,123.4,28.9,135.4,28.9,135.4z M24.2,123.9c-2,2.1-3.8,5.3-5.1,9.3c-2.2-1-4.3-2.3-6.1-3.8
		C16.2,126.7,20,124.8,24.2,123.9 M11.3,130.8c2.1,1.8,4.6,3.3,7.2,4.4c-1.1,4-1.8,8.7-1.8,13.7H3.3C3.5,141.8,6.6,135.5,11.3,130.8
		 M3.3,151.1h13.4c0.1,4.2,0.6,8.2,1.4,11.8c-2.9,1.3-5.5,3.1-7.8,5.2C6.1,163.5,3.5,157.6,3.3,151.1 M11.8,169.6
		c2-1.9,4.3-3.4,6.8-4.6c1.3,4.8,3.3,8.7,5.6,11.1C19.5,175.1,15.2,172.8,11.8,169.6 M59,151.1L59,151.1V149l0,0
		c-0.5-15.2-12.7-27.4-27.9-27.9l0,0H29l0,0c-15.2,0.5-27.4,12.7-28,27.8l0,0v2.1l0,0c0.3,7.1,3.1,13.6,7.6,18.6l0,0h0.1
		c5.1,5.5,12.3,9,20.3,9.3l0,0h1l0,0l0,0h1.1l0,0c8-0.3,15.2-3.8,20.3-9.3h0.1l0,0C55.9,164.7,58.7,158.2,59,151.1"/>
</g>
<g id="Livello_1_1_">
</g>
<path class="st0" d="M115,132.8h-9.8V123c0-1.1-0.9-2-2-2s-2,0.9-2,2v9.8h-9.8c-1.1,0-2,0.9-2,2s0.9,2,2,2h9.8v9.8c0,1.1,0.9,2,2,2
	s2-0.9,2-2v-9.8h9.8c1.1,0,2-0.9,2-2S116.1,132.8,115,132.8z"/>
<g>
	<path class="st0" d="M69.7,150.7c0-5.5,4.6-10.1,10.1-10.1s10.1,4.6,10.1,10.1s-4.6,10.1-10.1,10.1S69.7,156.2,69.7,150.7z
		 M79.8,161.6c-14.2,0-18.8,11.6-18.8,11.6v5.8h37.6v-5.8C98.6,173.2,94,161.6,79.8,161.6z"/>
</g>
<g>
	<path class="st0" d="M176.6,123.4h-21.8c-1.4,0-2.4,1-2.4,2.4v2.4h-29c-1.4,0-2.4,0.5-2.4,1.9v31.4c0,1.2,1,2.9,2.4,2.9h19.3v4.8
		h-7.3c-1.4,0-2.4,0.5-2.4,1.9v5.3h41.1c3.9,0,4.8-1,4.8-2.4v-48.3C179,124.4,178,123.4,176.6,123.4z M152.4,174.2h-16.9v-2.4h16.9
		V174.2z M152.4,169.3h-4.8v-4.8h4.8V169.3z M152.4,159.7h-26.6v-2.4h26.6V159.7z M152.4,154.8h-26.6v-21.8h26.6V154.8z
		 M174.2,171.8h-16.9v-43.5h16.9V171.8z"/>
	<rect x="159.7" y="133.1" class="st0" width="12.1" height="2.4"/>
	<rect x="159.7" y="137.9" class="st0" width="12.1" height="2.4"/>
	<rect x="159.7" y="142.8" class="st0" width="12.1" height="2.4"/>
	<circle class="st0" cx="165.7" cy="165.7" r="1.2"/>
</g>
<g>
	<polygon class="st0" points="181,170.1 202.7,173.3 202.7,152.7 181,152.7 	"/>
	<polygon class="st0" points="208.9,174.1 239,178.5 239,152.7 208.9,152.7 	"/>
	<polygon class="st0" points="208.9,125.3 208.9,146.7 239,146.7 239,121 	"/>
	<polygon class="st0" points="181,146.7 202.7,146.7 202.7,126.1 181,129.4 	"/>
</g>
<g id="Setting">
	<path class="st0" d="M296.2,143.3l-5.9-0.9c-0.2-0.6-0.4-1.1-0.6-1.6l3.6-4.8c1-1.4,0.8-3.4-0.5-4.7l-4.2-4.2
		c-0.7-0.7-1.7-1.1-2.7-1.1c-0.7,0-1.4,0.2-2,0.7l-4.8,3.6c-0.5-0.2-1.1-0.4-1.6-0.6l-0.9-5.8c-0.2-1.7-1.8-2.8-3.7-2.8h-6
		c-1.8,0-3.4,1-3.7,2.8l-0.9,5.8c-0.5,0.2-1.1,0.4-1.6,0.6l-4.8-3.6c-0.6-0.4-1.3-0.7-2-0.7c-1,0-2,0.4-2.7,1.1l-4.2,4.2
		c-1.3,1.3-1.5,3.3-0.5,4.7l3.6,4.8c-0.2,0.5-0.5,1.1-0.7,1.6l-5.7,0.9c-1.7,0.2-2.8,1.8-2.8,3.7v6c0,1.9,1.1,3.4,2.8,3.7l5.9,0.9
		c0.2,0.6,0.4,1.1,0.6,1.6l-3.6,4.8c-1,1.4-0.8,3.4,0.5,4.7l4.2,4.2c0.7,0.7,1.7,1.1,2.7,1.1c0.7,0,1.4-0.2,2-0.6l4.8-3.6
		c0.5,0.2,1.1,0.5,1.6,0.7l0.9,5.8c0.2,1.7,1.8,2.8,3.7,2.8h6c1.8,0,3.4-1.1,3.7-2.8l0.9-5.9c0.5-0.2,1.1-0.4,1.6-0.6l4.8,3.6
		c0.6,0.4,1.3,0.7,2,0.7c1,0,2-0.4,2.7-1.1l4.2-4.2c1.3-1.3,1.5-3.3,0.5-4.7l-3.6-4.8c0.2-0.5,0.5-1.1,0.7-1.6l5.7-0.9
		c1.7-0.2,2.8-1.8,2.8-3.7v-6C299,145,297.9,143.5,296.2,143.3z M287.3,155.2c-0.3,1.1-0.8,2.1-1.3,3.1l-0.5,1l4.8,6.5
		c0,0,0,0,0,0.1l-4.2,4.2c0,0,0,0-0.1,0l-6.5-4.8l-1,0.5c-1,0.6-2.1,1-3.1,1.3l-1.1,0.4l-1.2,8.3c0,0,0,0.2-0.1,0.2h-6
		c0,0,0-0.2-0.1-0.2l-1.2-8.2l-1.1-0.4c-1.1-0.3-2.1-0.8-3.1-1.3l-1-0.6l-6.5,4.8c0,0,0,0,0,0l-4.2-4.2c0,0,0,0,0-0.1l4.9-6.5
		l-0.6-1c-0.5-1-0.9-2-1.3-3.1l-0.4-1.1l-8.1-1.1c0,0-0.3-0.1-0.3-0.1v-6c0,0,0.3-0.1,0.3-0.1l8.1-1.1l0.4-1.1
		c0.3-1.1,0.8-2.1,1.3-3.1l0.6-1l-4.8-6.5c0,0,0,0,0.1-0.1l4.2-4.2c0,0,0,0,0.1,0l6.5,4.8l1-0.5c1-0.6,2.1-1,3.1-1.3l1.1-0.3
		l1.2-8.2c0,0,0-0.1,0.1-0.1h6c0,0,0,0.1,0.1,0.1l1.2,8.1l1.1,0.4c1.1,0.3,2.1,0.8,3.1,1.3l1,0.6l6.5-4.8c0,0,0,0,0,0l4.2,4.2
		c0,0,0,0,0,0.1l-4.8,6.5l0.5,1c0.5,1,1,2,1.3,3.1l0.4,1.1l8.1,1.1c0,0,0.3,0.1,0.3,0.1v6c0,0-0.3,0.1-0.3,0.1l-8.1,1.1L287.3,155.2
		z"/>
	<g>
		<path class="st0" d="M270,162.3c-7,0-12.6-5.7-12.6-12.6c0-7,5.7-12.6,12.6-12.6c7,0,12.6,5.7,12.6,12.6
			C282.6,156.6,277,162.3,270,162.3z M270,140c-5.3,0-9.7,4.3-9.7,9.7c0,5.3,4.3,9.7,9.7,9.7c5.3,0,9.7-4.3,9.7-9.7
			C279.7,144.3,275.3,140,270,140z"/>
	</g>
</g>
<g>
	<path class="st3" d="M353,142.8c0-1.3-1.1-2.4-2.4-2.4c-1.3,0-2.4,1.1-2.4,2.4c0,0.6,0,17.5,0,18.1c0,1.3,1.1,2.4,2.4,2.4
		c1.3,0,2.4-1.1,2.4-2.4C353,160.3,353,143.3,353,142.8z"/>
	<path class="st3" d="M333.6,175.4c1.3,0,2.4-1.1,2.4-2.4s-1.1-2.4-2.4-2.4c-0.6,0-5.5,0-6,0c-1.3,0-2.4,1.1-2.4,2.4
		s1.1,2.4,2.4,2.4C328.2,175.4,333,175.4,333.6,175.4z"/>
	<path class="st3" d="M309.5,141.5c0-11.3,9.2-20.5,20.5-20.5s20.5,9.2,20.5,20.5"/>
	<path class="st3" d="M353,142.8c3.3,0,6,4.1,6,9.1c0,5-2.7,9.1-6,9.1"/>
	<path class="st3" d="M307,142.8c0-1.3,1.1-2.4,2.4-2.4c1.3,0,2.4,1.1,2.4,2.4c0,0.6,0,17.5,0,18.1c0,1.3-1.1,2.4-2.4,2.4
		c-1.3,0-2.4-1.1-2.4-2.4C307,160.3,307,143.3,307,142.8z"/>
	<path class="st3" d="M307,142.8c-3.3,0-6,4.1-6,9.1c0,5,2.7,9.1,6,9.1"/>
	<path class="st3" d="M350.5,163.3c0,6-3.6,9.7-9.7,9.7H336"/>
</g>
<path class="st0" d="M400.3,162.1c0,0.8-0.3,1.5-0.9,2.1s-1.3,0.9-2.1,0.9s-1.5-0.3-2.1-0.9s-0.9-1.3-0.9-2.1c0-0.8,0.3-1.5,0.9-2.1
	c0.6-0.6,1.3-0.9,2.1-0.9s1.5,0.3,2.1,0.9C400,160.5,400.3,161.3,400.3,162.1z M409.9,162.1c0,0.8-0.3,1.5-0.9,2.1s-1.3,0.9-2.1,0.9
	c-0.8,0-1.5-0.3-2.1-0.9s-0.9-1.3-0.9-2.1c0-0.8,0.3-1.5,0.9-2.1c0.6-0.6,1.3-0.9,2.1-0.9c0.8,0,1.5,0.3,2.1,0.9
	C409.6,160.5,409.9,161.3,409.9,162.1z M414.2,168.1V156c0-0.3-0.1-0.6-0.4-0.8c-0.2-0.2-0.5-0.4-0.8-0.4H367
	c-0.3,0-0.6,0.1-0.8,0.4c-0.2,0.2-0.4,0.5-0.4,0.8v12.1c0,0.3,0.1,0.6,0.4,0.8c0.2,0.2,0.5,0.4,0.8,0.4H413c0.3,0,0.6-0.1,0.8-0.4
	C414,168.7,414.2,168.5,414.2,168.1z M367.7,150h44.6l-5.9-18.2c-0.1-0.3-0.3-0.6-0.6-0.8s-0.6-0.3-1-0.3h-29.5
	c-0.4,0-0.7,0.1-1,0.3s-0.5,0.5-0.6,0.8L367.7,150z M419,156v12.1c0,1.7-0.6,3.1-1.8,4.3c-1.2,1.2-2.6,1.8-4.3,1.8H367
	c-1.7,0-3.1-0.6-4.3-1.8c-1.2-1.2-1.8-2.6-1.8-4.3V156c0-0.6,0.2-1.6,0.6-2.8l7.4-22.9c0.4-1.3,1.2-2.4,2.4-3.2
	c1.2-0.8,2.4-1.2,3.8-1.2h29.5c1.4,0,2.7,0.4,3.8,1.2c1.2,0.8,2,1.9,2.4,3.2l7.4,22.9C418.8,154.5,419,155.4,419,156z"/>
<circle class="st4" cx="450" cy="150" r="29"/>
<line class="st4" x1="450" y1="125.5" x2="450" y2="129.7"/>
<line class="st4" x1="443.7" y1="126.3" x2="444.8" y2="130.4"/>
<line class="st4" x1="437.7" y1="128.8" x2="439.9" y2="132.5"/>
<line class="st4" x1="432.7" y1="132.7" x2="435.7" y2="135.7"/>
<line class="st4" x1="428.8" y1="137.7" x2="432.5" y2="139.9"/>
<line class="st4" x1="471.2" y1="162.3" x2="467.5" y2="160.1"/>
<line class="st4" x1="426.3" y1="143.7" x2="430.4" y2="144.8"/>
<line class="st4" x1="473.7" y1="156.3" x2="469.6" y2="155.2"/>
<line class="st4" x1="425.5" y1="150" x2="429.7" y2="150"/>
<line class="st4" x1="474.5" y1="150" x2="470.3" y2="150"/>
<line class="st4" x1="426.3" y1="156.3" x2="430.4" y2="155.2"/>
<line class="st4" x1="473.7" y1="143.7" x2="469.6" y2="144.8"/>
<line class="st4" x1="428.8" y1="162.3" x2="432.5" y2="160.1"/>
<line class="st4" x1="471.2" y1="137.7" x2="467.5" y2="139.9"/>
<line class="st4" x1="467.3" y1="132.7" x2="464.3" y2="135.7"/>
<line class="st4" x1="462.3" y1="128.8" x2="460.1" y2="132.5"/>
<line class="st4" x1="456.3" y1="126.3" x2="455.2" y2="130.4"/>
<circle class="st2" cx="450" cy="149.9" r="2.1"/>
<line class="st4" x1="451.5" y1="150.7" x2="463.2" y2="157.9"/>
<path class="st5" d="M58.4,214.2l-4.6,4.4l0.5,6.4c0.1,0.9-0.5,1.7-1.3,1.9l-6.1,1.8l-2.5,5.9c-0.3,0.8-1.2,1.3-2.1,1.1l-6.3-1.3
	l-4.9,4c-0.3,0.3-0.7,0.4-1.2,0.4c-0.4,0-0.8-0.1-1.2-0.4l-4.9-4l-6.3,1.3c-0.8,0.2-1.7-0.3-2.1-1.1l-2.5-5.9L7,226.9
	c-0.8-0.2-1.4-1-1.3-1.9l0.5-6.4l-4.6-4.4c-0.6-0.6-0.7-1.6-0.3-2.3l3.4-5.4l-2-6.1c-0.3-0.8,0.1-1.7,0.8-2.2l5.5-3.2l1-6.3
	c0.1-0.9,0.9-1.5,1.7-1.5l6.4-0.3l3.8-5.1c0.5-0.7,1.5-0.9,2.3-0.6l5.8,2.7l5.8-2.7c0.8-0.4,1.7-0.1,2.2,0.6l3.8,5.1l6.4,0.3
	c0.9,0,1.6,0.7,1.7,1.5l1,6.3l5.5,3.2c0.8,0.4,1.1,1.3,0.8,2.2l-2,6.1l3.4,5.4C59.2,212.7,59.1,213.6,58.4,214.2z"/>
<g>
	<path class="st2" d="M18.8,207.1c-0.2-0.7-0.3-1.1-0.3-3.7s0.1-3,0.3-3.7c0.6-1.7,2.1-2.8,4.2-2.8s3.6,1.1,4.2,2.8
		c0.2,0.7,0.3,1.1,0.3,3.7c0,2.6-0.1,3-0.3,3.7c-0.6,1.7-2.1,2.8-4.2,2.8S19.4,208.8,18.8,207.1z M24.9,206.5
		c0.1-0.4,0.2-0.9,0.2-3.1s-0.1-2.7-0.2-3.1c-0.3-0.8-1-1.3-2-1.3s-1.7,0.4-2,1.3c-0.1,0.4-0.2,0.9-0.2,3.1s0.1,2.7,0.2,3.1
		c0.3,0.8,1,1.3,2,1.3S24.6,207.3,24.9,206.5z M35.7,197.2c0.1-0.3,0.3-0.4,0.6-0.4h1.7c0.2,0,0.3,0.2,0.2,0.4L24,221.8
		c-0.1,0.3-0.3,0.4-0.5,0.4h-1.7c-0.2,0-0.3-0.2-0.2-0.4L35.7,197.2z M32.3,215.6c0-2.6,0.1-3,0.3-3.7c0.6-1.7,2.1-2.8,4.2-2.8
		c2.1,0,3.6,1.1,4.2,2.8c0.2,0.7,0.3,1.1,0.3,3.7c0,2.6-0.1,3-0.3,3.7c-0.6,1.7-2.1,2.8-4.2,2.8c-2.1,0-3.6-1.1-4.2-2.8
		C32.4,218.6,32.3,218.2,32.3,215.6z M36.8,220c0.9,0,1.7-0.4,2-1.3c0.1-0.4,0.2-0.9,0.2-3.1c0-2.2-0.1-2.7-0.2-3.1
		c-0.3-0.8-1-1.3-2-1.3s-1.7,0.4-2,1.3c-0.1,0.4-0.2,0.9-0.2,3.1c0,2.2,0.1,2.7,0.2,3.1C35.1,219.6,35.8,220,36.8,220z"/>
</g>
<g>
	<path class="st0" d="M65.1,234.9h45.6v-33.2H65.1V234.9z M77.5,195.6v-9.3c0-0.3-0.1-0.6-0.3-0.7c-0.2-0.2-0.4-0.3-0.7-0.3h-2.1
		c-0.3,0-0.6,0.1-0.7,0.3c-0.2,0.2-0.3,0.4-0.3,0.7v9.3c0,0.3,0.1,0.6,0.3,0.7s0.4,0.3,0.7,0.3h2.1c0.3,0,0.6-0.1,0.7-0.3
		S77.5,195.8,77.5,195.6z M102.4,195.6v-9.3c0-0.3-0.1-0.6-0.3-0.7c-0.2-0.2-0.4-0.3-0.7-0.3h-2.1c-0.3,0-0.6,0.1-0.7,0.3
		c-0.2,0.2-0.3,0.4-0.3,0.7v9.3c0,0.3,0.1,0.6,0.3,0.7s0.4,0.3,0.7,0.3h2.1c0.3,0,0.6-0.1,0.7-0.3
		C102.3,196.1,102.4,195.8,102.4,195.6z M114.8,193.4v41.4c0,1.1-0.4,2.1-1.2,2.9s-1.8,1.2-2.9,1.2H65.1c-1.1,0-2.1-0.4-2.9-1.2
		s-1.2-1.8-1.2-2.9v-41.4c0-1.1,0.4-2.1,1.2-2.9c0.8-0.8,1.8-1.2,2.9-1.2h4.1v-3.1c0-1.4,0.5-2.6,1.5-3.7c1-1,2.2-1.5,3.7-1.5h2.1
		c1.4,0,2.6,0.5,3.7,1.5c1,1,1.5,2.2,1.5,3.7v3.1h12.4v-3.1c0-1.4,0.5-2.6,1.5-3.7c1-1,2.2-1.5,3.7-1.5h2.1c1.4,0,2.6,0.5,3.7,1.5
		c1,1,1.5,2.2,1.5,3.7v3.1h4.1c1.1,0,2.1,0.4,2.9,1.2C114.4,191.3,114.8,192.3,114.8,193.4z"/>
	<g>
		<path class="st0" d="M75,225c0.8,0.5,2.5,1.2,4.3,1.2c3.4,0,4.4-2.2,4.4-3.8c0-2.7-2.5-3.9-5-3.9h-1.5v-2h1.5c1.9,0,4.3-1,4.3-3.3
			c0-1.6-1-2.9-3.4-2.9c-1.6,0-3.1,0.7-3.9,1.3l-0.7-1.9c1-0.8,3-1.5,5.1-1.5c3.8,0,5.6,2.3,5.6,4.6c0,2-1.2,3.7-3.6,4.6v0.1
			c2.4,0.5,4.3,2.3,4.3,5c0,3.1-2.4,5.8-7.1,5.8c-2.2,0-4.1-0.7-5.1-1.3L75,225z"/>
		<path class="st0" d="M102.7,218c0,6.6-2.5,10.3-6.8,10.3c-3.8,0-6.4-3.6-6.4-10c0-6.5,2.8-10.1,6.8-10.1
			C100.4,208.2,102.7,211.8,102.7,218z M92.1,218.3c0,5.1,1.6,7.9,4,7.9c2.7,0,4-3.1,4-8.1c0-4.8-1.2-7.9-4-7.9
			C93.8,210.2,92.1,213,92.1,218.3z"/>
	</g>
</g>
<g>
	<g>
		<path class="st0" d="M165.4,200.2c-0.5-0.5-1.2-0.5-1.7,0l-16.1,16.1l-8.8-8.8c-0.5-0.5-1.2-0.5-1.7,0s-0.5,1.2,0,1.7l9.7,9.7
			c0.2,0.2,0.5,0.4,0.9,0.4s0.6-0.1,0.9-0.4l16.9-16.9C165.8,201.4,165.8,200.7,165.4,200.2z"/>
	</g>
</g>
<g>
	<g>
		<path class="st0" d="M174.5,187.8l-24.2-7.3c-0.2-0.1-0.5-0.1-0.7,0l-24.2,7.3c-0.5,0.2-0.9,0.6-0.9,1.2v26.6
			c0,10.7,16.3,20.2,25,22.9c0.1,0,0.2,0.1,0.4,0.1s0.2,0,0.4-0.1c8.7-2.7,25-12.2,25-22.9V189C175.4,188.4,175,187.9,174.5,187.8z
			 M173,215.5c0,8.5-13.4,17.4-23,20.5c-9.5-3.1-23-12-23-20.5v-25.7l23-6.9l23,6.9V215.5z"/>
	</g>
</g>
</svg>
