<?xml version="1.0" standalone="no"?>
<!DOCTYPE svg PUBLIC "-//W3C//DTD SVG 20010904//EN"
 "http://www.w3.org/TR/2001/REC-SVG-20010904/DTD/svg10.dtd">
<svg version="1.0" xmlns="http://www.w3.org/2000/svg"
 width="128.000000pt" height="128.000000pt" viewBox="0 0 128.000000 128.000000"
 preserveAspectRatio="xMidYMid meet">
<metadata>
Created by potrace 1.11, written by Peter Selinger 2001-2013
</metadata>
<g transform="translate(0.000000,128.000000) scale(0.100000,-0.100000)"
fill="#000000" stroke="none">
<path d="M669 1265 c-3 -2 -79 -18 -169 -35 -90 -16 -171 -32 -182 -35 -41
-14 -43 -30 -46 -512 -3 -446 -4 -463 -22 -463 -46 0 -68 -69 -30 -92 12 -8
20 -24 20 -40 0 -15 6 -31 14 -35 8 -4 15 -17 18 -28 3 -20 12 -20 506 -23
l502 -2 0 560 0 560 -105 0 c-87 0 -105 3 -105 15 0 8 -9 24 -20 35 -18 18
-33 20 -150 20 l-130 0 0 28 c0 15 -5 33 -12 40 -12 12 -80 17 -89 7z"/>
</g>
</svg>
