<?xml version="1.0" encoding="utf-8"?>
<!-- Generator: Adobe Illustrator 21.0.0, SVG Export Plug-In . SVG Version: 6.00 Build 0)  -->
<svg version="1.1" id="Слой_1" xmlns="http://www.w3.org/2000/svg" xmlns:xlink="http://www.w3.org/1999/xlink" x="0px" y="0px"
	 width="485px" height="120px" viewBox="0 0 485 120" style="enable-background:new 0 0 485 120;" xml:space="preserve">
<style type="text/css">
	.st0{fill:#FFFFFF;}
	.st1{fill:#FFFFFF;stroke:#FFFFFF;stroke-width:2;stroke-miterlimit:10;}
	.st2{fill:#FFFFFF;stroke:#FFFFFF;stroke-miterlimit:10;}
</style>
<path class="st0" d="M69.3,16.7v8.5h-3.6c-2.7,0-4.8,2.2-4.8,4.8v24.2c0,2.7,2.2,4.8,4.8,4.8h38.7c2.7,0,4.8-2.2,4.8-4.8V30
	c0-2.7-2.2-4.8-4.8-4.8h-3.6v-8.5C100.7,8,93.7,1,85,1S69.3,8,69.3,16.7z M75.3,25.2v-8.5c0-5.3,4.3-9.7,9.7-9.7s9.7,4.3,9.7,9.7
	v8.5H75.3z M80.2,38.5c0-2.7,2.2-4.8,4.8-4.8s4.8,2.2,4.8,4.8c0,1.7-0.9,3.2-2.2,4.1c0,0,0.5,2.9,1,6.2c0,1-0.8,1.8-1.8,1.8h-3.6
	c-1,0-1.8-0.8-1.8-1.8l1-6.2C81,41.7,80.2,40.2,80.2,38.5z"/>
<path id="Arrow_Left_1_" class="st0" d="M58.8,52.8c0.1-0.6,2-15.2-6.6-25.3c-5.3-6.2-13.4-9.6-24-9.9L28.1,7.4c0-0.7-0.4-1.3-1-1.6
	c-0.6-0.3-1.4-0.2-1.9,0.2L1.7,25.3C1.2,25.7,1,26.2,1,26.7c0,0.5,0.2,1.1,0.7,1.4l23.5,19.5c0.5,0.4,1.3,0.5,1.9,0.2
	c0.6-0.3,1-0.9,1-1.6l0.1-10.4c25.4,0,27.2,16.3,27.3,16.9c0.1,0.9,0.7,1.6,1.6,1.7c0,0,0,0,0.1,0C58,54.4,58.6,53.7,58.8,52.8z
	 M25,32.7c-0.3,0.3-0.5,0.8-0.5,1.3v8.4L5.7,26.7l18.8-15.5v8.1c0,1,0.8,1.8,1.8,1.8c10.3,0,18.2,3,23.1,8.7
	c3.7,4.3,5.4,9.5,5.9,13.8c-4-5.4-10.9-11.5-29-11.5c0,0,0,0,0,0C25.8,32.1,25.4,32.3,25,32.7z"/>
<g>
	<path class="st0" d="M125.1,54.9h45.6V21.7h-45.6V54.9z M137.5,15.5V6.2c0-0.3-0.1-0.6-0.3-0.7c-0.2-0.2-0.4-0.3-0.7-0.3h-2.1
		c-0.3,0-0.6,0.1-0.7,0.3c-0.2,0.2-0.3,0.4-0.3,0.7v9.3c0,0.3,0.1,0.6,0.3,0.7s0.4,0.3,0.7,0.3h2.1c0.3,0,0.6-0.1,0.7-0.3
		S137.5,15.8,137.5,15.5z M162.4,15.5V6.2c0-0.3-0.1-0.6-0.3-0.7c-0.2-0.2-0.4-0.3-0.7-0.3h-2.1c-0.3,0-0.6,0.1-0.7,0.3
		c-0.2,0.2-0.3,0.4-0.3,0.7v9.3c0,0.3,0.1,0.6,0.3,0.7s0.4,0.3,0.7,0.3h2.1c0.3,0,0.6-0.1,0.7-0.3C162.3,16.1,162.4,15.8,162.4,15.5
		z M174.8,13.4v41.4c0,1.1-0.4,2.1-1.2,2.9s-1.8,1.2-2.9,1.2h-45.6c-1.1,0-2.1-0.4-2.9-1.2c-0.8-0.8-1.2-1.8-1.2-2.9V13.4
		c0-1.1,0.4-2.1,1.2-2.9c0.8-0.8,1.8-1.2,2.9-1.2h4.1V6.2c0-1.4,0.5-2.6,1.5-3.7c1-1,2.2-1.5,3.7-1.5h2.1c1.4,0,2.6,0.5,3.7,1.5
		c1,1,1.5,2.2,1.5,3.7v3.1h12.4V6.2c0-1.4,0.5-2.6,1.5-3.7c1-1,2.2-1.5,3.7-1.5h2.1c1.4,0,2.6,0.5,3.7,1.5c1,1,1.5,2.2,1.5,3.7v3.1
		h4.1c1.1,0,2.1,0.4,2.9,1.2S174.8,12.3,174.8,13.4z"/>
	<g>
		<path class="st0" d="M142,45c0.8,0.5,2.7,1.3,4.7,1.3c3.7,0,4.8-2.3,4.7-4.1c0-2.9-2.7-4.2-5.4-4.2h-1.6v-2.1h1.6
			c2.1,0,4.7-1.1,4.7-3.6c0-1.7-1.1-3.2-3.7-3.2c-1.7,0-3.3,0.7-4.2,1.4l-0.7-2.1c1.1-0.8,3.2-1.6,5.5-1.6c4.1,0,6,2.5,6,5
			c0,2.2-1.3,4-3.9,4.9v0.1c2.6,0.5,4.7,2.5,4.7,5.4c0,3.4-2.6,6.3-7.7,6.3c-2.4,0-4.4-0.7-5.5-1.4L142,45z"/>
	</g>
</g>
<g id="document_x5F_text">
	<polygon class="st0" points="195.5,40.9 195.5,37.3 217.3,37.3 217.3,40.9 	"/>
	<polygon class="st0" points="195.5,26.4 195.5,22.8 224.5,22.8 224.5,26.4 	"/>
	<polygon class="st0" points="195.5,33.6 195.5,30 224.5,30 224.5,33.6 	"/>
	<path class="st0" d="M221.6,1h-33.4v58h43.5V11.1L221.6,1z M220.9,5.4l6.5,6.5h-6.5C220.9,11.9,220.9,5.4,220.9,5.4z M191.9,55.4
		V4.6h25.4v10.9h10.9v39.9H191.9z"/>
</g>
<path class="st0" d="M270,1c-16,0-29,13-29,29s13,29,29,29s29-13,29-29S286,1,270,1z M270,55.8c-14.2,0-25.8-11.5-25.8-25.8
	S255.8,4.2,270,4.2c14.2,0,25.8,11.5,25.8,25.8l0,0C295.8,44.2,284.2,55.8,270,55.8z"/>
<polygon class="st0" points="266,35 259.8,28.8 257,31.5 266,40.5 284.7,21.7 282,19 "/>
<path class="st0" d="M315.5,54.2h29V39.7h-29V54.2z M349.3,54.2h4.8V20.3c0-0.4-0.1-0.8-0.4-1.5s-0.5-1.1-0.8-1.3L342.4,7
	c-0.3-0.3-0.7-0.5-1.3-0.8c-0.6-0.3-1.1-0.4-1.5-0.4v15.7c0,1-0.4,1.9-1.1,2.6s-1.6,1.1-2.6,1.1h-21.8c-1,0-1.9-0.4-2.6-1.1
	s-1.1-1.6-1.1-2.6V5.8h-4.8v48.3h4.8V38.5c0-1,0.4-1.9,1.1-2.6s1.6-1.1,2.6-1.1h31.4c1,0,1.9,0.4,2.6,1.1s1.1,1.6,1.1,2.6V54.2z
	 M334.8,19.1V7c0-0.3-0.1-0.6-0.4-0.8c-0.2-0.2-0.5-0.4-0.8-0.4h-7.3c-0.3,0-0.6,0.1-0.8,0.4c-0.2,0.2-0.4,0.5-0.4,0.8v12.1
	c0,0.3,0.1,0.6,0.4,0.8s0.5,0.4,0.8,0.4h7.3c0.3,0,0.6-0.1,0.8-0.4S334.8,19.5,334.8,19.1z M359,20.3v35c0,1-0.4,1.9-1.1,2.6
	c-0.7,0.7-1.6,1.1-2.6,1.1h-50.8c-1,0-1.9-0.4-2.6-1.1c-0.7-0.7-1.1-1.6-1.1-2.6V4.6c0-1,0.4-1.9,1.1-2.6s1.6-1.1,2.6-1.1h35
	c1,0,2.1,0.3,3.3,0.8c1.2,0.5,2.2,1.1,2.9,1.8l10.6,10.6c0.7,0.7,1.3,1.7,1.8,2.9C358.7,18.2,359,19.3,359,20.3z"/>
<g>
	<path class="st0" d="M403.2,3.1c4-0.7,8.1-1.4,12.3-2.1c-0.8,4.1-1.6,8.2-2.4,12.4c-0.7-0.7-1.5-1.4-2.1-2.1
		c-0.4-0.5-0.7-0.4-1.1,0c-2.6,2.6-5.3,5.2-7.9,7.8c-4.7,4.6-9.5,9.2-14.2,13.8c-0.4,0.4-0.6,0.3-0.9,0c-2-1.9-4-3.8-5.9-5.7
		c-0.4-0.4-0.6-0.4-1,0c-4.3,4.4-8.7,8.7-13,13c-0.4,0.4-0.6,0.5-1,0c-1.3-1.3-2.6-2.5-3.9-3.8c-0.3-0.3-0.3-0.4,0-0.7
		c6.1-6,12.1-12,18.2-18.1c0.4-0.4,0.6-0.2,0.9,0.1c2,1.8,3.9,3.7,5.9,5.6c0.3,0.3,0.5,0.3,0.8,0c5.4-5.2,10.8-10.4,16.2-15.6
		c0.5-0.5,0.9-0.9,1.4-1.3c0.5-0.4,0.4-0.6,0-1c-0.8-0.7-1.5-1.4-2.2-2.1C403.1,3.3,403.1,3.2,403.2,3.1z"/>
	<rect x="360.9" y="44.3" class="st0" width="15.1" height="14.7"/>
	<rect x="380.5" y="37.4" class="st0" width="15.1" height="21.6"/>
	<rect x="400" y="27.9" class="st0" width="15.1" height="31.1"/>
</g>
<path class="st0" d="M459.7,30c0-3.1-2.5-5.5-5.5-5.5s-5.5,2.5-5.5,5.5s2.5,5.5,5.5,5.5S459.7,33.1,459.7,30z M454.1,5.1
	c-13.7,0-24.9,11.1-24.9,24.9H421l11,11l11-11h-8.3c0-10.7,8.7-19.3,19.3-19.3c10.7,0,19.3,8.7,19.3,19.3s-8.7,19.3-19.3,19.3
	c-4.2,0-8-1.3-11.2-3.6l-3.9,4c4.2,3.2,9.4,5.2,15.1,5.2c13.7,0,24.9-11.1,24.9-24.9S467.9,5.1,454.1,5.1z"/>
<g>
	<path class="st0" d="M29,61H6.5c-3.3,0-5.9,2.7-5.9,5.9v46.2c0,3.3,2.7,5.9,5.9,5.9H29c3.3,0,5.9-2.7,5.9-5.9V66.9
		C34.9,63.7,32.3,61,29,61z M17.8,116.6c-2.3,0-4.1-1.3-4.1-3s1.9-3,4.1-3c2.3,0,4.1,1.3,4.1,3C21.9,115.3,20,116.6,17.8,116.6z
		 M30.2,107.8H5.3V68.7h24.9V107.8z"/>
</g>
<g id="layer_copy">
	<path class="st1" d="M108.5,102.3c-2.1-4.1-4.9-7.6-8.5-10.5c3-3.3,4.9-7.6,4.9-12.4c0-10.1-8.3-18.3-18.4-18.3
		s-18.4,8.2-18.4,18.3c0,4.8,1.9,9.2,4.9,12.4c-3.6,2.9-6.4,6.5-8.5,10.5c-2.4,4.7-3.6,9.9-3.6,15.5c0,0.7,0.5,1.2,1.2,1.2
		s1.2-0.5,1.2-1.2c0-9.8,4.1-18.3,11.4-24.3c3.2,2.6,7.3,4.2,11.7,4.2c4.4,0,8.5-1.6,11.7-4.2c7.4,5.9,11.5,14.5,11.5,24.3
		c0,0.7,0.5,1.2,1.2,1.2s1.2-0.5,1.2-1.2C112.1,112.2,110.9,107,108.5,102.3z M70.6,79.3c0-8.8,7.2-15.9,16-15.9s16,7.1,16,15.9
		s-7.2,15.9-16,15.9S70.6,88.1,70.6,79.3z"/>
</g>
<path class="st2" d="M169.4,81.3c-0.7,0.7-8.9-0.1-9.8-0.9c-0.9-0.9-1.6-8.8-0.8-9.7c0.9-0.9,7.8-7.8,7.8-7.8s0.8-0.9-0.4-0.9
	c-3.8,0-11.6,0.1-15.4,3.8l-0.8,0.8c-4.9,4.9-4.8,12.6,0,17.5l5.8,5.8c4.8,4.8,12.5,5,17.4,0.1l0.8-0.8c3.7-3.6,3.8-11.4,3.8-15.3
	c0-1.2-0.9-0.4-0.9-0.4S170,80.6,169.4,81.3z"/>
<path class="st2" d="M149.1,82.5l-24.9,22.8c-1.8,1.8-4.1,6.5,0,10.6c4.1,4.1,8.8,1.8,10.6,0c0,0,22-24.9,22.6-24.7"/>
<g id="Expanded">
	<g>
		<g>
			<path class="st0" d="M210,84.7c-14.8,0-26.4-5.2-26.4-11.9c0-6.7,11.6-11.9,26.4-11.9s26.4,5.2,26.4,11.9
				C236.4,79.5,224.8,84.7,210,84.7z M210,63.6c-11.2,0-23.7,3.8-23.7,9.2s12.5,9.2,23.7,9.2s23.7-3.8,23.7-9.2S221.2,63.6,210,63.6
				z"/>
		</g>
		<g>
			<path class="st0" d="M210,95.3c-14.8,0-26.4-5.2-26.4-11.9V72.9c0-0.7,0.6-1.3,1.3-1.3s1.3,0.6,1.3,1.3v10.5
				c0,5.4,12.5,9.2,23.7,9.2s23.7-3.8,23.7-9.2V72.9c0-0.7,0.6-1.3,1.3-1.3s1.3,0.6,1.3,1.3v10.5C236.4,90.1,224.8,95.3,210,95.3z"
				/>
		</g>
		<g>
			<path class="st0" d="M210,107.1c-14.8,0-26.4-5.2-26.4-11.9V83.4c0-0.7,0.6-1.3,1.3-1.3s1.3,0.6,1.3,1.3v11.9
				c0,5.4,12.5,9.2,23.7,9.2s23.7-3.8,23.7-9.2V83.4c0-0.7,0.6-1.3,1.3-1.3s1.3,0.6,1.3,1.3v11.9C236.4,101.9,224.8,107.1,210,107.1
				z"/>
		</g>
		<g>
			<path class="st0" d="M210,119c-14.8,0-26.4-5.2-26.4-11.9V95.3c0-0.7,0.6-1.3,1.3-1.3s1.3,0.6,1.3,1.3v11.9
				c0,5.4,12.5,9.2,23.7,9.2s23.7-3.8,23.7-9.2V95.3c0-0.7,0.6-1.3,1.3-1.3s1.3,0.6,1.3,1.3v11.9C236.4,113.8,224.8,119,210,119z"/>
		</g>
	</g>
</g>
<g>
	<path class="st0" d="M282.9,90c0-1.8-1.4-3.2-3.2-3.2H270c-1.8,0-3.2,1.4-3.2,3.2s1.5,3.2,3.2,3.2h9.7
		C281.4,93.2,282.9,91.8,282.9,90z"/>
</g>
<g>
	<path class="st0" d="M270,67.4c12.4,0,22.6,10.1,22.6,22.6s-10.1,22.6-22.6,22.6s-22.6-10.1-22.6-22.6S257.6,67.4,270,67.4 M270,61
		c-16,0-29,13-29,29s13,29,29,29s29-13,29-29S286,61,270,61z"/>
</g>
<g>
	<path class="st0" d="M273.2,80.3c0-1.8-1.5-3.2-3.2-3.2s-3.2,1.4-3.2,3.2V90c0,1.8,1.5,3.2,3.2,3.2s3.2-1.4,3.2-3.2V80.3z"/>
</g>
<g>
	<path class="st0" d="M270,73.9c8.9,0,16.1,7.2,16.1,16.1s-7.2,16.1-16.1,16.1s-16.1-7.2-16.1-16.1S261.1,73.9,270,73.9 M270,70.7
		c-10.7,0-19.3,8.7-19.3,19.3c0,10.7,8.7,19.3,19.3,19.3s19.3-8.7,19.3-19.3C289.3,79.3,280.7,70.7,270,70.7z"/>
</g>
<path class="st0" d="M338.5,87.8l-12-12c-1.1-1.1-2.9-1.1-4,0l-1,1c-1.1,1.1-1.1,2.9,0,4l9.2,9.2l-9.2,9.2c-1.1,1.1-1.1,2.9,0,4l1,1
	c1.1,1.1,2.9,1.1,4,0l12-12c0.6-0.6,0.9-1.4,0.8-2.2C339.4,89.2,339.1,88.4,338.5,87.8z"/>
</svg>
