<?xml version="1.0" encoding="utf-8"?>
<!-- Generator: Adobe Illustrator 21.0.0, SVG Export Plug-In . SVG Version: 6.00 Build 0)  -->
<svg version="1.1" id="Слой_1" xmlns="http://www.w3.org/2000/svg" xmlns:xlink="http://www.w3.org/1999/xlink" x="0px" y="0px"
	 width="597px" height="491px" viewBox="0 0 597 491" style="enable-background:new 0 0 597 491;" xml:space="preserve">
<style type="text/css">
	.st0{fill:#FFFFFF;stroke:#FFFFFF;stroke-width:2;stroke-miterlimit:10;}
	.st1{fill:#006FD1;}
	.st2{fill:#FFFFFF;}
</style>
<path class="st0" d="M108.4,399.3c-49.7-4.6-88.7-41.9-97.1-91.1c-8.1-47.2,7.6-91,53.7-119.9c8.5-5.3,12.6-11.2,14-20.5
	c9.3-61.3,75.5-109.8,142.6-91c7.1,2,11.6,0.3,16.5-5.9c32.3-41.1,74.2-61.1,127.3-61.4C437.5,9.1,516.2,69,516.6,164.9
	c0,10.9,2.4,16.2,12.1,21.4c46.6,24.8,69.9,79.4,55.4,130c-12.7,44.1-42.4,71.2-86.8,82.7C493.2,400,149.6,403.1,108.4,399.3z"/>
<path class="st1" d="M395.5,3.4c62.3,13.1,91,53.6,91,53.6c24.1,28.1,38.6,64.4,39.6,104.2c0.2,5.8,3.9,13.9,8.5,16.8
	c35.2,22.5,57.2,52.9,61.9,95c0.3,2.6,0.1,29-0.5,32.9c-7.2,48.7-48.2,92.4-96,101.6c-4,0.8-8.2,0.7-12.3,1c-0.7-1.4-1.3-2.8-2-4.1
	c3.9-1.9,7.5-4.4,11.6-5.5c44.4-11.4,74.1-38.5,86.8-82.7c14.5-50.6-8.7-105.2-55.4-130c-9.7-5.2-12.1-10.5-12.1-21.4
	C516.2,69,437.5,9.1,365.4,9.5c-53,0.3-94.9,20.3-127.3,61.4c-4.9,6.2-9.4,7.9-16.5,5.9c-67.1-18.8-133.3,29.7-142.6,91
	c-1.4,9.3-5.6,15.2-14,20.5C18.8,217.2,3.1,261,11.2,308.2c8.5,49.1,47.4,86.5,97.1,91.1c41.2,3.8,83,2.1,124.5,3c5,0.1,10,1.3,15,2
	c0,1.6,0,3.1,0,4.7c-4.1,0.7-8.2,1.9-12.3,1.9c-38.8,0.1-77.5,0.7-116.3-0.1C67.1,409.7,10.3,358.3,1.2,306
	c-0.8-4.7-1.1-8.7-1.2-11.4c0-4.7,0-9.3,0-14c0.1-4.5,0.5-11,2-18.6c1.6-8.5,7.8-31.3,24.5-52.2c8.1-10.1,17.9-19,29.5-26.6
	c8-5.2,12.8-11,14.7-20.5c13-67.8,84.2-110.4,143.5-96.9c8.6,2,15.4,1.1,22-6.8c15.6-18.6,33.5-33,53.9-42.9
	c21.2-10.3,41.6-13.5,55.7-15C358.1-0.4,368,0,370.1,0.1C370.1,0.1,382.8,0.7,395.5,3.4z"/>
<g>
	<path class="st1" d="M311.2,490.8c-1.5-1.1-2.8-2.9-4.4-3.3c-24.2-5.9-33-23.7-33.2-45.9c-0.5-93.3-0.7-186.7,0-280
		c0.2-30.9,16.9-45.2,48-45.3c32.2,0,64.4-0.1,96.6,0c25.7,0.1,42.6,16,42.7,41.7c0.4,96.1,0.3,192.3,0.1,288.4
		c0,19.6-10.6,33.3-29.2,40.1c-3,1.1-5.7,2.8-8.6,4.3C386,490.8,348.6,490.8,311.2,490.8z M284.6,300.7c0,48.6-0.1,97.1,0,145.7
		c0.1,21.1,10.8,31.7,32,31.8c33.6,0.1,67.2,0.1,100.9,0c21.3,0,33.6-9.2,33.8-30.6c0.9-97.1,0.8-194.2,0.1-291.4
		c-0.2-20.5-13.5-31-34-31.2c-33.2-0.3-66.3-0.3-99.5,0c-21.8,0.2-33.2,12.1-33.3,34.1C284.5,206.3,284.6,253.5,284.6,300.7z"/>
	<path class="st2" d="M284.6,300.9c0-47.2-0.1-94.3,0-141.5c0-22.1,11.4-34,33.3-34.1c33.2-0.3,66.3-0.3,99.5,0
		c20.5,0.2,33.8,10.7,34,31.2c0.8,97.1,0.8,194.3-0.1,291.4c-0.2,21.4-12.4,30.5-33.8,30.6c-33.6,0.1-67.2,0.1-100.9,0
		c-21.2-0.1-31.9-10.7-32-31.8C284.5,398.1,284.6,349.5,284.6,300.9z M422,171.8c-0.1-11.1-8.5-19-19.9-18.7
		c-10.6,0.2-19.5,9.3-19.3,19.8c0.2,10.3,9.8,19.4,20.3,19.3C413.3,192.1,422.2,182.6,422,171.8z M421,333.8
		c-13-9.5-100.2-8.2-109,0C349.5,333.8,385.2,333.8,421,333.8z M421,367.4c-9.8-6.5-98-6.4-107.2,0.2
		C323.4,374,411.8,373.8,421,367.4z M421,401.4c-9.8-6.4-98.1-6.2-107.2,0.2C323.6,408,411.8,407.8,421,401.4z"/>
	<path class="st1" d="M422,171.6c0.1,10.8-8.7,20.3-18.9,20.4c-10.5,0.1-20.1-9-20.3-19.3c-0.2-10.5,8.6-19.6,19.3-19.8
		C413.5,152.6,421.9,160.5,422,171.6z"/>
	<path class="st1" d="M421,333.6c-35.7,0-71.5,0-109,0C320.8,325.3,408,324,421,333.6z"/>
	<path class="st1" d="M421,367.1c-9.2,6.5-97.5,6.6-107.2,0.2C323,360.7,411.2,360.6,421,367.1z"/>
	<path class="st1" d="M421,401.1c-9.2,6.4-97.4,6.6-107.2,0.2C322.9,394.9,411.2,394.8,421,401.1z"/>
</g>
</svg>
