<?xml version="1.0" standalone="no"?>
<!DOCTYPE svg PUBLIC "-//W3C//DTD SVG 20010904//EN"
 "http://www.w3.org/TR/2001/REC-SVG-20010904/DTD/svg10.dtd">
<svg version="1.0" xmlns="http://www.w3.org/2000/svg"
 width="1194.000000pt" height="1194.000000pt" viewBox="0 0 1194.000000 1194.000000"
 preserveAspectRatio="xMidYMid meet">
<metadata>
Created by potrace 1.11, written by Peter Selinger 2001-2013
</metadata>
<g transform="translate(0.000000,1194.000000) scale(0.100000,-0.100000)"
fill="#000000" stroke="none">
<path d="M7089 10876 c-2 -2 -41 -7 -85 -10 -45 -4 -93 -9 -105 -11 -13 -3
-44 -6 -69 -9 -64 -7 -141 -17 -170 -22 -14 -3 -36 -7 -50 -9 -49 -9 -95 -18
-105 -21 -5 -1 -21 -4 -35 -7 -14 -3 -45 -10 -70 -17 -64 -16 -74 -18 -80 -20
-3 -1 -9 -3 -15 -5 -5 -1 -13 -3 -17 -5 -5 -1 -11 -3 -15 -4 -5 -1 -35 -10
-68 -21 -33 -10 -62 -19 -65 -20 -18 -4 -91 -30 -125 -45 -22 -9 -71 -30 -110
-46 -38 -15 -73 -32 -76 -37 -3 -5 -8 -8 -10 -7 -7 3 -63 -23 -91 -43 -16 -10
-28 -16 -28 -12 0 3 -17 -6 -37 -20 -21 -14 -41 -25 -45 -25 -4 0 -27 -13 -51
-30 -25 -16 -49 -30 -55 -30 -6 0 -12 -3 -14 -7 -1 -5 -34 -29 -73 -55 -68
-45 -87 -59 -145 -105 -15 -13 -33 -23 -39 -23 -6 0 -11 -3 -11 -7 0 -5 -31
-33 -68 -63 -111 -91 -465 -453 -480 -491 -2 -5 -10 -9 -17 -9 -7 0 -15 -6
-18 -13 -6 -16 -104 -64 -148 -73 -42 -7 -135 -7 -169 1 -14 4 -38 8 -55 10
-16 3 -41 7 -55 10 -50 12 -76 17 -105 20 -16 2 -30 4 -30 5 0 3 -161 11 -250
12 -100 0 -323 -14 -332 -22 -2 -2 -12 -4 -23 -5 -11 -1 -21 -3 -22 -5 -2 -1
-18 -3 -36 -5 -19 -2 -41 -6 -50 -10 -8 -3 -31 -8 -51 -11 -20 -3 -47 -9 -61
-14 -14 -5 -52 -16 -85 -25 -71 -20 -228 -77 -305 -112 -30 -14 -71 -32 -90
-41 -19 -8 -43 -22 -52 -30 -10 -8 -18 -12 -18 -9 0 4 -24 -8 -53 -25 -28 -17
-67 -40 -86 -50 -67 -38 -187 -122 -295 -208 -83 -65 -261 -240 -336 -329 -70
-83 -170 -219 -170 -231 0 -5 -4 -10 -10 -10 -5 0 -10 -6 -10 -14 0 -8 -3 -16
-8 -18 -21 -9 -192 -336 -192 -368 0 -10 -3 -20 -7 -22 -10 -4 -63 -153 -76
-213 -2 -5 -6 -16 -10 -22 -5 -7 -6 -13 -3 -13 3 0 1 -11 -4 -25 -5 -14 -12
-36 -14 -48 -36 -195 -89 -311 -189 -409 -38 -37 -72 -68 -77 -68 -5 0 -15 -6
-22 -12 -7 -7 -33 -26 -58 -43 -25 -16 -52 -35 -60 -43 -8 -7 -36 -27 -61 -45
-116 -80 -315 -273 -427 -411 -72 -89 -182 -247 -182 -260 0 -4 -11 -22 -23
-39 -28 -37 -149 -277 -140 -277 3 0 1 -6 -5 -13 -14 -16 -72 -167 -65 -167 3
0 0 -6 -6 -14 -7 -8 -14 -26 -17 -40 -2 -14 -9 -38 -16 -53 -6 -16 -11 -31
-10 -35 1 -4 -5 -25 -13 -47 -8 -23 -12 -41 -10 -41 2 0 0 -14 -5 -32 -5 -17
-12 -47 -15 -67 -3 -20 -8 -48 -11 -61 -12 -56 -15 -117 -19 -365 -2 -143 1
-289 6 -325 22 -152 19 -136 37 -210 5 -19 10 -38 11 -42 1 -4 3 -13 5 -20 10
-44 72 -221 93 -268 37 -83 116 -242 134 -270 9 -14 40 -63 69 -110 30 -47 57
-86 62 -88 4 -2 8 -8 8 -14 0 -11 92 -131 172 -223 87 -99 248 -261 328 -327
41 -35 77 -65 80 -68 14 -14 90 -70 95 -70 4 0 13 -7 21 -15 23 -23 211 -145
223 -145 6 0 11 -3 11 -7 0 -5 10 -13 23 -19 12 -6 69 -35 127 -64 58 -30 110
-55 115 -56 6 -1 24 -8 40 -15 17 -7 32 -13 35 -14 3 -1 19 -7 35 -14 58 -26
96 -39 128 -47 4 -1 8 -2 10 -4 1 -1 9 -3 17 -5 8 -1 35 -8 60 -16 25 -7 54
-14 65 -16 11 -2 36 -8 55 -13 19 -5 60 -12 90 -15 30 -4 59 -9 63 -12 4 -2
111 -6 238 -8 127 -2 233 -6 236 -9 2 -2 18 0 34 4 16 5 29 6 29 2 0 -4 34 -7
75 -7 43 0 75 4 75 10 0 6 3 6 8 0 4 -6 39 -11 77 -11 39 0 73 5 77 11 5 6 8
6 8 0 0 -11 268 -14 286 -3 6 4 14 4 18 0 12 -11 250 -9 258 3 5 6 8 6 8 0 0
-12 89 -13 108 -2 6 5 12 5 12 0 0 -10 142 -9 158 1 7 4 12 3 12 -1 0 -10 113
-9 129 1 6 4 11 3 11 -1 0 -9 62 -9 77 0 4 2 17 1 28 -3 11 -4 32 -4 47 1 15
4 30 4 33 -1 3 -4 21 -4 40 0 19 4 37 4 40 -1 3 -4 11 -6 18 -3 7 2 112 6 233
8 120 2 230 7 244 11 14 4 41 10 61 14 52 11 56 16 55 63 l-2 43 -69 11 c-140
22 -160 26 -163 29 -1 1 166 2 373 2 l375 -1 0 -185 c0 -238 7 -746 10 -746 1
0 4 -20 5 -45 2 -25 4 -45 5 -45 2 0 4 -9 5 -20 1 -11 15 -60 30 -109 61 -194
158 -327 318 -432 38 -25 75 -47 81 -48 6 -1 25 -9 41 -18 17 -8 64 -26 105
-38 41 -13 94 -37 116 -54 l42 -32 1118 1 1119 1 115 55 c63 31 131 62 150 69
19 7 42 19 50 25 8 7 31 20 50 30 18 10 40 24 48 31 7 8 17 14 22 14 14 0 145
133 177 180 96 142 152 339 143 505 -1 17 -2 47 -3 68 -1 20 2 37 6 37 4 0 3
9 -3 20 -6 11 -7 20 -3 20 4 0 6 43 3 96 -3 53 -3 97 -1 100 4 3 5 111 1 129
-1 6 -1 12 0 15 6 16 6 52 -1 56 -5 2 -6 11 -3 18 9 23 10 166 1 166 -5 0 -5
6 0 13 10 16 10 37 1 65 -4 12 -4 22 1 22 4 0 7 15 5 33 l-4 32 153 2 c83 2
230 4 325 6 l173 4 -38 -22 c-21 -12 -56 -31 -79 -41 l-41 -19 21 -43 20 -43
93 6 c130 8 267 36 403 82 41 14 81 26 88 26 6 0 12 4 12 9 0 4 7 8 15 8 15 0
77 27 200 87 79 39 72 35 185 104 46 28 90 58 98 65 7 8 18 12 23 9 5 -4 9 -2
9 2 0 5 33 33 72 63 102 78 117 91 252 225 124 123 145 146 206 225 19 25 38
47 42 48 5 2 8 10 8 18 0 8 3 14 8 14 4 0 23 25 42 55 19 30 39 55 43 55 5 0
6 4 3 8 -3 5 5 19 17 33 12 13 33 48 47 76 14 29 28 53 33 53 4 0 7 9 7 20 0
11 4 20 9 20 4 0 20 27 35 60 15 33 37 82 49 108 12 26 21 49 22 52 0 3 13 37
28 76 15 39 29 79 31 90 2 10 9 31 15 47 6 15 18 58 26 94 50 217 49 202 50
578 0 198 -4 378 -8 400 -22 113 -29 146 -31 167 -2 13 -6 30 -9 38 -5 15 -17
62 -23 88 -1 7 -12 46 -25 85 -12 40 -22 78 -22 85 0 6 -4 12 -9 12 -4 0 -8 7
-8 15 0 46 -140 330 -231 469 -33 49 -59 93 -59 98 0 4 -4 8 -10 8 -5 0 -16
12 -24 28 -8 15 -29 43 -45 62 -17 19 -45 52 -63 74 -94 110 -279 284 -408
383 -41 31 -76 61 -78 65 -2 4 -10 8 -17 8 -8 0 -19 8 -24 18 -6 9 -11 13 -11
7 0 -6 -3 -6 -8 1 -4 5 -40 32 -80 59 -88 58 -115 89 -155 175 -16 36 -34 73
-39 83 -8 16 -10 41 -23 247 -3 47 -8 103 -11 125 -2 22 -7 60 -10 85 -3 25
-7 56 -10 70 -2 14 -7 43 -10 65 -3 22 -12 68 -20 103 -7 34 -16 74 -19 90 -3
15 -11 51 -19 80 -8 28 -12 52 -9 52 3 0 0 6 -6 14 -6 7 -12 25 -13 40 -1 14
-7 26 -12 26 -5 0 -6 3 -3 7 4 3 0 17 -9 31 -9 13 -11 22 -5 18 5 -4 2 15 -8
41 -11 26 -29 75 -41 108 -12 33 -31 79 -41 102 -11 24 -19 45 -19 48 0 18
-193 391 -209 405 -3 3 -15 20 -25 39 -10 19 -47 75 -82 126 -56 80 -106 144
-244 316 -48 59 -232 243 -305 305 -69 59 -85 72 -140 113 -22 17 -45 35 -50
39 -6 5 -24 17 -40 27 -17 10 -35 23 -40 29 -6 6 -22 18 -37 26 -14 8 -71 42
-125 74 -180 109 -559 284 -625 289 -10 1 -18 5 -18 10 0 5 -7 7 -15 3 -8 -3
-15 -1 -15 4 0 6 -11 10 -24 10 -14 0 -28 5 -31 10 -4 6 -11 8 -16 4 -5 -3
-15 -1 -22 4 -11 9 -66 25 -92 27 -5 1 -20 4 -32 9 -12 4 -32 9 -45 12 -39 9
-53 12 -53 14 0 1 -9 3 -20 5 -11 2 -31 6 -45 9 -14 2 -43 7 -65 10 -22 4 -49
9 -60 13 -11 3 -33 7 -50 8 -31 2 -104 11 -165 21 -39 6 -465 15 -471 10z
m1171 -8060 c0 -2 -7 -7 -16 -10 -8 -3 -12 -2 -9 4 6 10 25 14 25 6z m-1760
-12 c0 -8 -19 -13 -24 -6 -3 5 1 9 9 9 8 0 15 -2 15 -3z m1570 -8 c0 -2 -8
-10 -17 -17 -16 -13 -17 -12 -4 4 13 16 21 21 21 13z m-1250 -22 c0 -8 -19
-13 -24 -6 -3 5 1 9 9 9 8 0 15 -2 15 -3z m290 -14 c0 -5 -2 -10 -4 -10 -3 0
-8 5 -11 10 -3 6 -1 10 4 10 6 0 11 -4 11 -10z m160 0 c0 -5 -2 -10 -4 -10 -3
0 -8 5 -11 10 -3 6 -1 10 4 10 6 0 11 -4 11 -10z m35 0 c3 -5 1 -10 -4 -10 -6
0 -11 5 -11 10 0 6 2 10 4 10 3 0 8 -4 11 -10z m125 0 c0 -5 -5 -10 -11 -10
-5 0 -7 5 -4 10 3 6 8 10 11 10 2 0 4 -4 4 -10z m40 0 c0 -5 -2 -10 -4 -10 -3
0 -8 5 -11 10 -3 6 -1 10 4 10 6 0 11 -4 11 -10z m125 0 c3 -6 -1 -7 -9 -4
-18 7 -21 14 -7 14 6 0 13 -4 16 -10z m132 4 c-3 -3 -12 -4 -19 -1 -8 3 -5 6
6 6 11 1 17 -2 13 -5z"/>
</g>
</svg>
