<?xml version="1.0" encoding="UTF-8" standalone="no"?>
<!DOCTYPE svg PUBLIC "-//W3C//DTD SVG 1.1//EN" "http://www.w3.org/Graphics/SVG/1.1/DTD/svg11.dtd">
<svg width="100%" height="100%" viewBox="0 0 28 45" version="1.1" xmlns="http://www.w3.org/2000/svg" xmlns:xlink="http://www.w3.org/1999/xlink" xml:space="preserve" xmlns:serif="http://www.serif.com/" style="fill-rule:evenodd;clip-rule:evenodd;stroke-linejoin:round;stroke-miterlimit:1.41421;">
    <g transform="matrix(1,0,0,1,-316.037,-67.5)">
        <g transform="matrix(1.4975,0,0,1.4975,-164.175,-44.7754)">
            <path d="M338.5,87.8L326.5,75.8C325.4,74.7 323.6,74.7 322.5,75.8L321.5,76.8C320.4,77.9 320.4,79.7 321.5,80.8L330.7,90L321.5,99.2C320.4,100.3 320.4,102.1 321.5,103.2L322.5,104.2C323.6,105.3 325.4,105.3 326.5,104.2L338.5,92.2C339.1,91.6 339.4,90.8 339.3,90C339.4,89.2 339.1,88.4 338.5,87.8Z" style="fill:white;fill-rule:nonzero;"/>
        </g>
    </g>
</svg>
