<?xml version="1.0" encoding="UTF-8" standalone="no"?><!DOCTYPE svg PUBLIC "-//W3C//DTD SVG 1.1//EN" "http://www.w3.org/Graphics/SVG/1.1/DTD/svg11.dtd"><svg width="100%" height="100%" viewBox="0 0 59 49" version="1.1" xmlns="http://www.w3.org/2000/svg" xmlns:xlink="http://www.w3.org/1999/xlink" xml:space="preserve" xmlns:serif="http://www.serif.com/" style="fill-rule:evenodd;clip-rule:evenodd;stroke-linejoin:round;stroke-miterlimit:1.41421;"><path id="Arrow_Left_1_" d="M57.8,47.174c0.1,-0.6 2,-15.2 -6.6,-25.3c-5.3,-6.2 -13.4,-9.6 -24,-9.9l-0.1,-10.2c0,-0.7 -0.4,-1.3 -1,-1.6c-0.6,-0.3 -1.4,-0.2 -1.9,0.2l-23.5,19.3c-0.5,0.4 -0.7,0.9 -0.7,1.4c0,0.5 0.2,1.1 0.7,1.4l23.5,19.5c0.5,0.4 1.3,0.5 1.9,0.2c0.6,-0.3 1,-0.9 1,-1.6l0.1,-10.4c25.4,0 27.2,16.3 27.3,16.9c0.1,0.9 0.7,1.6 1.6,1.7l0.1,0c0.8,0 1.4,-0.7 1.6,-1.6Zm-33.8,-20.1c-0.3,0.3 -0.5,0.8 -0.5,1.3l0,8.4l-18.8,-15.7l18.8,-15.5l0,8.1c0,1 0.8,1.8 1.8,1.8c10.3,0 18.2,3 23.1,8.7c3.7,4.3 5.4,9.5 5.9,13.8c-4,-5.4 -10.9,-11.5 -29,-11.5c-0.5,0 -0.9,0.2 -1.3,0.6Z" style="fill:#fff;fill-rule:nonzero;"/></svg>