<?xml version="1.0" encoding="UTF-8" standalone="no"?><!DOCTYPE svg PUBLIC "-//W3C//DTD SVG 1.1//EN" "http://www.w3.org/Graphics/SVG/1.1/DTD/svg11.dtd"><svg width="100%" height="100%" viewBox="0 0 59 59" version="1.1" xmlns="http://www.w3.org/2000/svg" xmlns:xlink="http://www.w3.org/1999/xlink" xml:space="preserve" xmlns:serif="http://www.serif.com/" style="fill-rule:evenodd;clip-rule:evenodd;stroke-linejoin:round;stroke-miterlimit:1.41421;"><path d="M14.7,53.3l29,0l0,-14.5l-29,0l0,14.5Zm33.8,0l4.8,0l0,-33.9c0,-0.4 -0.1,-0.8 -0.4,-1.5c-0.3,-0.7 -0.5,-1.1 -0.8,-1.3l-10.5,-10.5c-0.3,-0.3 -0.7,-0.5 -1.3,-0.8c-0.6,-0.3 -1.1,-0.4 -1.5,-0.4l0,15.7c0,1 -0.4,1.9 -1.1,2.6c-0.7,0.7 -1.6,1.1 -2.6,1.1l-21.8,0c-1,0 -1.9,-0.4 -2.6,-1.1c-0.7,-0.7 -1.1,-1.6 -1.1,-2.6l0,-15.7l-4.8,0l0,48.3l4.8,0l0,-15.6c0,-1 0.4,-1.9 1.1,-2.6c0.7,-0.7 1.6,-1.1 2.6,-1.1l31.4,0c1,0 1.9,0.4 2.6,1.1c0.7,0.7 1.1,1.6 1.1,2.6l0.1,15.7Zm-14.5,-35.1l0,-12.1c0,-0.3 -0.1,-0.6 -0.4,-0.8c-0.2,-0.2 -0.5,-0.4 -0.8,-0.4l-7.3,0c-0.3,0 -0.6,0.1 -0.8,0.4c-0.2,0.2 -0.4,0.5 -0.4,0.8l0,12.1c0,0.3 0.1,0.6 0.4,0.8c0.3,0.2 0.5,0.4 0.8,0.4l7.3,0c0.3,0 0.6,-0.1 0.8,-0.4c0.2,-0.3 0.4,-0.4 0.4,-0.8Zm24.2,1.2l0,35c0,1 -0.4,1.9 -1.1,2.6c-0.7,0.7 -1.6,1.1 -2.6,1.1l-50.8,0c-1,0 -1.9,-0.4 -2.6,-1.1c-0.7,-0.7 -1.1,-1.6 -1.1,-2.6l0,-50.7c0,-1 0.4,-1.9 1.1,-2.6c0.7,-0.7 1.6,-1.1 2.6,-1.1l35,0c1,0 2.1,0.3 3.3,0.8c1.2,0.5 2.2,1.1 2.9,1.8l10.6,10.6c0.7,0.7 1.3,1.7 1.8,2.9c0.6,1.2 0.9,2.3 0.9,3.3Z" style="fill:#fff;fill-rule:nonzero;"/></svg>