<?xml version="1.0" encoding="UTF-8" standalone="no"?>
<!DOCTYPE svg PUBLIC "-//W3C//DTD SVG 1.1//EN" "http://www.w3.org/Graphics/SVG/1.1/DTD/svg11.dtd">
<svg width="100%" height="100%" viewBox="0 0 58 53" version="1.1" xmlns="http://www.w3.org/2000/svg" xmlns:xlink="http://www.w3.org/1999/xlink" xml:space="preserve" xmlns:serif="http://www.serif.com/" style="fill-rule:evenodd;clip-rule:evenodd;stroke-linejoin:round;stroke-miterlimit:1.41421;">
    <g transform="matrix(1,0,0,1,-121,-123.4)">
        <path d="M176.6,123.4L154.8,123.4C153.4,123.4 152.4,124.4 152.4,125.8L152.4,128.2L123.4,128.2C122,128.2 121,128.7 121,130.1L121,161.5C121,162.7 122,164.4 123.4,164.4L142.7,164.4L142.7,169.2L135.4,169.2C134,169.2 133,169.7 133,171.1L133,176.4L174.1,176.4C178,176.4 178.9,175.4 178.9,174L178.9,125.7C179,124.4 178,123.4 176.6,123.4ZM152.4,174.2L135.5,174.2L135.5,171.8L152.4,171.8L152.4,174.2ZM152.4,169.3L147.6,169.3L147.6,164.5L152.4,164.5L152.4,169.3ZM152.4,159.7L125.8,159.7L125.8,157.3L152.4,157.3L152.4,159.7ZM152.4,154.8L125.8,154.8L125.8,133L152.4,133L152.4,154.8ZM174.2,171.8L157.3,171.8L157.3,128.3L174.2,128.3L174.2,171.8Z" style="fill:white;fill-rule:nonzero;"/>
        <rect x="159.7" y="133.1" width="12.1" height="2.4" style="fill:white;"/>
        <rect x="159.7" y="137.9" width="12.1" height="2.4" style="fill:white;"/>
        <rect x="159.7" y="142.8" width="12.1" height="2.4" style="fill:white;"/>
        <circle cx="165.7" cy="165.7" r="1.2" style="fill:white;"/>
    </g>
</svg>
