<?xml version="1.0" encoding="UTF-8" standalone="no"?>
<!DOCTYPE svg PUBLIC "-//W3C//DTD SVG 1.1//EN" "http://www.w3.org/Graphics/SVG/1.1/DTD/svg11.dtd">
<svg width="100%" height="100%" viewBox="0 0 58 58" version="1.1" xmlns="http://www.w3.org/2000/svg" xmlns:xlink="http://www.w3.org/1999/xlink" xml:space="preserve" xmlns:serif="http://www.serif.com/" style="fill-rule:evenodd;clip-rule:evenodd;stroke-linejoin:round;stroke-miterlimit:1.41421;">
    <g transform="matrix(1,0,0,1,-361,-61)">
        <path d="M378.3,64.9L374.4,64.9L374.4,62.6C374.4,62.2 374.6,61.8 374.9,61.5C375.2,61.2 375.6,61 376,61L376.7,61C377.1,61 377.5,61.2 377.8,61.5C378.1,61.8 378.3,62.2 378.3,62.6L378.3,64.9ZM385.1,62.6C385.1,62.2 384.9,61.8 384.6,61.5C384.3,61.2 383.9,61 383.5,61L382.8,61C382.4,61 382,61.2 381.7,61.5C381.4,61.8 381.2,62.2 381.2,62.6L381.2,64.9L385.1,64.9L385.1,62.6ZM392,62.6C392,62.2 391.8,61.8 391.5,61.5C391.2,61.2 390.8,61 390.4,61L389.7,61C389.3,61 388.9,61.2 388.6,61.5C388.3,61.8 388.1,62.2 388.1,62.6L388.1,64.9L392,64.9L392,62.6ZM398.8,62.6C398.8,62.2 398.6,61.8 398.3,61.5C398,61.2 397.6,61 397.2,61L396.5,61C396.1,61 395.7,61.2 395.4,61.5C395.1,61.8 394.9,62.2 394.9,62.6L394.9,64.9L398.8,64.9L398.8,62.6ZM405.7,62.6C405.7,62.2 405.5,61.8 405.2,61.5C404.9,61.2 404.5,61 404.1,61L403.4,61C403,61 402.6,61.2 402.3,61.5C402,61.8 401.8,62.2 401.8,62.6L401.8,64.9L405.7,64.9L405.7,62.6ZM362.6,101.7C362.2,101.7 361.8,101.9 361.5,102.2C361.2,102.5 361,102.9 361,103.3L361,104C361,104.4 361.2,104.8 361.5,105.1C361.8,105.4 362.2,105.6 362.6,105.6L364.9,105.6L364.9,101.7L362.6,101.7ZM362.6,94.9C362.2,94.9 361.8,95.1 361.5,95.4C361.2,95.7 361,96.1 361,96.5L361,97.2C361,97.6 361.2,98 361.5,98.3C361.8,98.6 362.2,98.8 362.6,98.8L364.9,98.8L364.9,94.9L362.6,94.9ZM362.6,88C362.2,88 361.8,88.2 361.5,88.5C361.2,88.8 361,89.2 361,89.6L361,90.3C361,90.7 361.2,91.1 361.5,91.4C361.8,91.7 362.2,91.9 362.6,91.9L364.9,91.9L364.9,88L362.6,88ZM362.6,81.2C362.2,81.2 361.8,81.4 361.5,81.7C361.2,82 361,82.4 361,82.8L361,83.5C361,83.9 361.2,84.3 361.5,84.6C361.8,84.9 362.2,85.1 362.6,85.1L364.9,85.1L364.9,81.2L362.6,81.2ZM362.6,74.3C362.2,74.3 361.8,74.5 361.5,74.8C361.2,75.1 361,75.5 361,75.9L361,76.6C361,77 361.2,77.4 361.5,77.7C361.8,78 362.2,78.2 362.6,78.2L364.9,78.2L364.9,74.3L362.6,74.3ZM415.1,101.7L415.1,105.6L417.4,105.6C417.8,105.6 418.2,105.4 418.5,105.1C418.8,104.8 419,104.4 419,104L419,103.3C419,102.9 418.8,102.5 418.5,102.2C418.2,101.9 417.8,101.7 417.4,101.7L415.1,101.7ZM415.1,94.9L415.1,98.8L417.4,98.8C417.8,98.8 418.2,98.6 418.5,98.3C418.8,98 419,97.6 419,97.2L419,96.5C419,96.1 418.8,95.7 418.5,95.4C418.2,95.1 417.8,94.9 417.4,94.9L415.1,94.9ZM415.1,88L415.1,92L417.4,92C417.8,92 418.2,91.8 418.5,91.5C418.8,91.2 419,90.8 419,90.4L419,89.7C419,89.3 418.8,88.9 418.5,88.6C418.2,88.3 417.8,88.1 417.4,88.1C417.4,88 415.1,88 415.1,88ZM415.1,81.2L415.1,85.1L417.4,85.1C417.8,85.1 418.2,84.9 418.5,84.6C418.8,84.3 419,83.9 419,83.5L419,82.8C419,82.4 418.8,82 418.5,81.7C418.2,81.4 417.8,81.2 417.4,81.2L415.1,81.2ZM415.1,74.3L415.1,78.2L417.4,78.2C417.8,78.2 418.2,78 418.5,77.7C418.8,77.4 419,77 419,76.6L419,75.9C419,75.5 418.8,75.1 418.5,74.8C418.2,74.5 417.8,74.3 417.4,74.3L415.1,74.3ZM378.3,115.1L374.4,115.1L374.4,117.4C374.4,117.8 374.6,118.2 374.9,118.5C375.2,118.8 375.6,119 376,119L376.7,119C377.1,119 377.5,118.8 377.8,118.5C378.1,118.2 378.3,117.8 378.3,117.4L378.3,115.1ZM385.1,115.1L381.2,115.1L381.2,117.4C381.2,117.8 381.4,118.2 381.7,118.5C382,118.8 382.4,119 382.8,119L383.5,119C383.9,119 384.3,118.8 384.6,118.5C384.9,118.2 385.1,117.8 385.1,117.4L385.1,115.1ZM392,115.1L388,115.1L388,117.4C388,117.8 388.2,118.2 388.5,118.5C388.8,118.8 389.2,119 389.6,119L390.3,119C390.7,119 391.1,118.8 391.4,118.5C391.7,118.2 391.9,117.8 391.9,117.4L392,115.1ZM398.8,115.1L394.9,115.1L394.9,117.4C394.9,117.8 395.1,118.2 395.4,118.5C395.7,118.8 396.1,119 396.5,119L397.2,119C397.6,119 398,118.8 398.3,118.5C398.6,118.2 398.8,117.8 398.8,117.4L398.8,115.1ZM405.7,115.1L401.8,115.1L401.8,117.4C401.8,117.8 402,118.2 402.3,118.5C402.6,118.8 403,119 403.4,119L404.1,119C404.5,119 404.9,118.8 405.2,118.5C405.5,118.2 405.7,117.8 405.7,117.4L405.7,115.1Z" style="fill:white;fill-rule:nonzero;"/>
        <path d="M375.1,70.8L370.9,75L370.9,104.9L375.1,109.1L405,109.1L409.2,104.9L409.2,75.1L405,70.9C404.9,70.8 375.1,70.8 375.1,70.8ZM412.8,73.1L406.9,67.2C406.7,67 406.4,66.9 406.1,66.9L373.9,66.9C373.6,66.9 373.3,67 373.1,67.2L367.2,73.1C367,73.3 366.9,73.6 366.9,73.9L366.9,106.1C366.9,106.4 367,106.7 367.2,106.9L373.1,112.8C373.3,113 373.6,113.1 373.9,113.1L406.1,113.1C406.4,113.1 406.7,113 406.9,112.8L412.8,106.9C413,106.7 413.1,106.4 413.1,106.1L413.1,73.9C413.1,73.6 413,73.3 412.8,73.1ZM410.8,105.6L405.6,110.8L374.4,110.8L369.2,105.6L369.2,74.4L374.4,69.2L405.6,69.2L410.8,74.4L410.8,105.6Z" style="fill:white;fill-rule:nonzero;"/>
    </g>
</svg>
