<?xml version="1.0" encoding="UTF-8" standalone="no"?><!DOCTYPE svg PUBLIC "-//W3C//DTD SVG 1.1//EN" "http://www.w3.org/Graphics/SVG/1.1/DTD/svg11.dtd"><svg width="100%" height="100%" viewBox="0 0 54 58" version="1.1" xmlns="http://www.w3.org/2000/svg" xmlns:xlink="http://www.w3.org/1999/xlink" xml:space="preserve" xmlns:serif="http://www.serif.com/" style="fill-rule:evenodd;clip-rule:evenodd;stroke-linejoin:round;stroke-miterlimit:1.41421;"><path d="M4.1,53.9l45.6,0l0,-33.2l-45.6,0l0,33.2Zm12.4,-39.4l0,-9.3c0,-0.3 -0.1,-0.6 -0.3,-0.7c-0.2,-0.2 -0.4,-0.3 -0.7,-0.3l-2.1,0c-0.3,0 -0.6,0.1 -0.7,0.3c-0.2,0.2 -0.3,0.4 -0.3,0.7l0,9.3c0,0.3 0.1,0.6 0.3,0.7c0.2,0.1 0.4,0.3 0.7,0.3l2.1,0c0.3,0 0.6,-0.1 0.7,-0.3c0.1,-0.2 0.3,-0.4 0.3,-0.7Zm24.9,0l0,-9.3c0,-0.3 -0.1,-0.6 -0.3,-0.7c-0.2,-0.2 -0.4,-0.3 -0.7,-0.3l-2.1,0c-0.3,0 -0.6,0.1 -0.7,0.3c-0.2,0.2 -0.3,0.4 -0.3,0.7l0,9.3c0,0.3 0.1,0.6 0.3,0.7c0.2,0.1 0.4,0.3 0.7,0.3l2.1,0c0.3,0 0.6,-0.1 0.7,-0.3c0.2,-0.1 0.3,-0.4 0.3,-0.7Zm12.4,-2.1l0,41.4c0,1.1 -0.4,2.1 -1.2,2.9c-0.8,0.8 -1.8,1.2 -2.9,1.2l-45.6,0c-1.1,0 -2.1,-0.4 -2.9,-1.2c-0.8,-0.8 -1.2,-1.8 -1.2,-2.9l0,-41.4c0,-1.1 0.4,-2.1 1.2,-2.9c0.8,-0.8 1.8,-1.2 2.9,-1.2l4.1,0l0,-3.1c0,-1.4 0.5,-2.6 1.5,-3.7c1,-1 2.2,-1.5 3.7,-1.5l2.1,0c1.4,0 2.6,0.5 3.7,1.5c1,1 1.5,2.2 1.5,3.7l0,3.1l12.4,0l0,-3.1c0,-1.4 0.5,-2.6 1.5,-3.7c1,-1 2.2,-1.5 3.7,-1.5l2.1,0c1.4,0 2.6,0.5 3.7,1.5c1,1 1.5,2.2 1.5,3.7l0,3.1l4.1,0c1.1,0 2.1,0.4 2.9,1.2c0.8,0.8 1.2,1.8 1.2,2.9Z" style="fill:#fff;fill-rule:nonzero;"/><path d="M21,44c0.8,0.5 2.7,1.3 4.7,1.3c3.7,0 4.8,-2.3 4.7,-4.1c0,-2.9 -2.7,-4.2 -5.4,-4.2l-1.6,0l0,-2.1l1.6,0c2.1,0 4.7,-1.1 4.7,-3.6c0,-1.7 -1.1,-3.2 -3.7,-3.2c-1.7,0 -3.3,0.7 -4.2,1.4l-0.7,-2.1c1.1,-0.8 3.2,-1.6 5.5,-1.6c4.1,0 6,2.5 6,5c0,2.2 -1.3,4 -3.9,4.9l0,0.1c2.6,0.5 4.7,2.5 4.7,5.4c0,3.4 -2.6,6.3 -7.7,6.3c-2.4,0 -4.4,-0.7 -5.5,-1.4l0.8,-2.1Z" style="fill:#fff;fill-rule:nonzero;"/></svg>