<?xml version="1.0" encoding="UTF-8" standalone="no"?>
<!DOCTYPE svg PUBLIC "-//W3C//DTD SVG 1.1//EN" "http://www.w3.org/Graphics/SVG/1.1/DTD/svg11.dtd">
<svg width="100%" height="100%" viewBox="0 0 54 58" version="1.1" xmlns="http://www.w3.org/2000/svg" xmlns:xlink="http://www.w3.org/1999/xlink" xml:space="preserve" xmlns:serif="http://www.serif.com/" style="fill-rule:evenodd;clip-rule:evenodd;stroke-linejoin:round;stroke-miterlimit:1.41421;">
    <g transform="matrix(1,0,0,1,-61,-181)">
        <path d="M65.1,234.9L110.7,234.9L110.7,201.7L65.1,201.7L65.1,234.9ZM77.5,195.6L77.5,186.3C77.5,186 77.4,185.7 77.2,185.6C77,185.4 76.8,185.3 76.5,185.3L74.4,185.3C74.1,185.3 73.8,185.4 73.7,185.6C73.5,185.8 73.4,186 73.4,186.3L73.4,195.6C73.4,195.9 73.5,196.2 73.7,196.3C73.9,196.4 74.1,196.6 74.4,196.6L76.5,196.6C76.8,196.6 77.1,196.5 77.2,196.3C77.3,196.1 77.5,195.8 77.5,195.6ZM102.4,195.6L102.4,186.3C102.4,186 102.3,185.7 102.1,185.6C101.9,185.4 101.7,185.3 101.4,185.3L99.3,185.3C99,185.3 98.7,185.4 98.6,185.6C98.4,185.8 98.3,186 98.3,186.3L98.3,195.6C98.3,195.9 98.4,196.2 98.6,196.3C98.8,196.4 99,196.6 99.3,196.6L101.4,196.6C101.7,196.6 102,196.5 102.1,196.3C102.3,196.1 102.4,195.8 102.4,195.6ZM114.8,193.4L114.8,234.8C114.8,235.9 114.4,236.9 113.6,237.7C112.8,238.5 111.8,238.9 110.7,238.9L65.1,238.9C64,238.9 63,238.5 62.2,237.7C61.4,236.9 61,235.9 61,234.8L61,193.4C61,192.3 61.4,191.3 62.2,190.5C63,189.7 64,189.3 65.1,189.3L69.2,189.3L69.2,186.2C69.2,184.8 69.7,183.6 70.7,182.5C71.7,181.5 72.9,181 74.4,181L76.5,181C77.9,181 79.1,181.5 80.2,182.5C81.2,183.5 81.7,184.7 81.7,186.2L81.7,189.3L94.1,189.3L94.1,186.2C94.1,184.8 94.6,183.6 95.6,182.5C96.6,181.5 97.8,181 99.3,181L101.4,181C102.8,181 104,181.5 105.1,182.5C106.1,183.5 106.6,184.7 106.6,186.2L106.6,189.3L110.7,189.3C111.8,189.3 112.8,189.7 113.6,190.5C114.4,191.3 114.8,192.3 114.8,193.4Z" style="fill:white;fill-rule:nonzero;"/>
        <g>
            <path d="M75,225C75.8,225.5 77.5,226.2 79.3,226.2C82.7,226.2 83.7,224 83.7,222.4C83.7,219.7 81.2,218.5 78.7,218.5L77.2,218.5L77.2,216.5L78.7,216.5C80.6,216.5 83,215.5 83,213.2C83,211.6 82,210.3 79.6,210.3C78,210.3 76.5,211 75.7,211.6L75,209.7C76,208.9 78,208.2 80.1,208.2C83.9,208.2 85.7,210.5 85.7,212.8C85.7,214.8 84.5,216.5 82.1,217.4L82.1,217.5C84.5,218 86.4,219.8 86.4,222.5C86.4,225.6 84,228.3 79.3,228.3C77.1,228.3 75.2,227.6 74.2,227L75,225Z" style="fill:white;fill-rule:nonzero;"/>
            <path d="M102.7,218C102.7,224.6 100.2,228.3 95.9,228.3C92.1,228.3 89.5,224.7 89.5,218.3C89.5,211.8 92.3,208.2 96.3,208.2C100.4,208.2 102.7,211.8 102.7,218ZM92.1,218.3C92.1,223.4 93.7,226.2 96.1,226.2C98.8,226.2 100.1,223.1 100.1,218.1C100.1,213.3 98.9,210.2 96.1,210.2C93.8,210.2 92.1,213 92.1,218.3Z" style="fill:white;fill-rule:nonzero;"/>
        </g>
    </g>
</svg>
