<?xml version="1.0" encoding="UTF-8" standalone="no"?><!DOCTYPE svg PUBLIC "-//W3C//DTD SVG 1.1//EN" "http://www.w3.org/Graphics/SVG/1.1/DTD/svg11.dtd"><svg width="100%" height="100%" viewBox="0 0 44 58" version="1.1" xmlns="http://www.w3.org/2000/svg" xmlns:xlink="http://www.w3.org/1999/xlink" xml:space="preserve" xmlns:serif="http://www.serif.com/" style="fill-rule:evenodd;clip-rule:evenodd;stroke-linejoin:round;stroke-miterlimit:1.41421;"><path d="M7.3,39.9l0,-3.6l21.8,0l0,3.6l-21.8,0Z" style="fill:#fff;fill-rule:nonzero;"/><path d="M7.3,25.4l0,-3.6l29,0l0,3.6l-29,0Z" style="fill:#fff;fill-rule:nonzero;"/><path d="M7.3,32.6l0,-3.6l29,0l0,3.6l-29,0Z" style="fill:#fff;fill-rule:nonzero;"/><path d="M33.4,0l-33.4,0l0,58l43.5,0l0,-47.9l-10.1,-10.1Zm-0.7,4.4l6.5,6.5l-6.5,0l0,-6.5Zm-29,50l0,-50.8l25.4,0l0,10.9l10.9,0l0,39.9l-36.3,0Z" style="fill:#fff;fill-rule:nonzero;"/></svg>