<?xml version="1.0" encoding="UTF-8" standalone="no"?><!DOCTYPE svg PUBLIC "-//W3C//DTD SVG 1.1//EN" "http://www.w3.org/Graphics/SVG/1.1/DTD/svg11.dtd"><svg width="100%" height="100%" viewBox="0 0 58 58" version="1.1" xmlns="http://www.w3.org/2000/svg" xmlns:xlink="http://www.w3.org/1999/xlink" xml:space="preserve" xmlns:serif="http://www.serif.com/" style="fill-rule:evenodd;clip-rule:evenodd;stroke-linejoin:round;stroke-miterlimit:1.41421;"><path d="M29,0c-16,0 -29,13 -29,29c0,16 13,29 29,29c16,0 29,-13 29,-29c0,-16 -13,-29 -29,-29Zm0,54.8c-14.2,0 -25.8,-11.5 -25.8,-25.8c0,-14.3 11.6,-25.8 25.8,-25.8c14.2,0 25.8,11.5 25.8,25.8c0,14.2 -11.6,25.8 -25.8,25.8Z" style="fill:#fff;fill-rule:nonzero;"/><path d="M25,34l-6.2,-6.2l-2.8,2.7l9,9l18.7,-18.8l-2.7,-2.7l-16,16Z" style="fill:#fff;fill-rule:nonzero;"/></svg>