<?xml version="1.0" encoding="UTF-8" standalone="no"?>
<!DOCTYPE svg PUBLIC "-//W3C//DTD SVG 1.1//EN" "http://www.w3.org/Graphics/SVG/1.1/DTD/svg11.dtd">
<svg width="100%" height="100%" viewBox="0 0 58 57" version="1.1" xmlns="http://www.w3.org/2000/svg" xmlns:xlink="http://www.w3.org/1999/xlink" xml:space="preserve" xmlns:serif="http://www.serif.com/" style="fill-rule:evenodd;clip-rule:evenodd;stroke-linejoin:round;stroke-miterlimit:1.41421;">
    <g transform="matrix(1,0,0,1,-421,-61)">
        <path d="M454.8,105.5L452.8,107.5C452.7,107.6 452.6,107.6 452.5,107.6C452.4,107.6 452.3,107.6 452.2,107.5L438.1,93.4L436.1,95.4C436,95.5 435.9,95.5 435.8,95.5C435.7,95.5 435.6,95.5 435.5,95.4C435.4,95.3 435.4,95.2 435.4,95.1L435.4,88.5C435.4,88.4 435.4,88.3 435.5,88.2C435.6,88.1 435.7,88.1 435.8,88.1L442.4,88.1C442.5,88.1 442.6,88.1 442.7,88.2C442.8,88.3 442.8,88.4 442.8,88.5C442.8,88.6 442.8,88.7 442.7,88.8L440.7,90.8L454.8,104.9C454.9,105 454.9,105.1 454.9,105.2C455,105.3 454.9,105.4 454.8,105.5ZM464.5,89.6C464.4,89.7 464.3,89.7 464.2,89.7L457.6,89.7C457.5,89.7 457.4,89.7 457.3,89.6C457.2,89.5 457.2,89.4 457.2,89.3C457.2,89.2 457.2,89.1 457.3,89L459.3,87L445.2,72.9C445.1,72.8 445.1,72.7 445.1,72.6C445.1,72.5 445.1,72.4 445.2,72.3L447.2,70.3C447.3,70.2 447.4,70.2 447.5,70.2C447.6,70.2 447.7,70.2 447.8,70.3L461.9,84.4L463.9,82.4C464,82.3 464.1,82.3 464.2,82.3C464.3,82.3 464.4,82.3 464.5,82.4C464.6,82.5 464.6,82.6 464.6,82.7L464.6,89.2C464.6,89.4 464.6,89.5 464.5,89.6Z" style="fill:white;fill-rule:nonzero;"/>
        <path d="M426.9,67.9C426.9,64.1 430.1,61 433.8,61C437.6,61 440.7,64.2 440.7,67.9C440.7,71.7 437.5,74.8 433.8,74.8C430.1,74.8 426.9,71.7 426.9,67.9ZM433.8,74.9C424.1,74.9 421,82.8 421,82.8L421,86.7L446.7,86.7L446.7,82.8C446.7,82.8 443.5,74.9 433.8,74.9Z" style="fill:white;fill-rule:nonzero;"/>
        <path d="M459.3,99C459.3,95.2 462.5,92.1 466.2,92.1C470,92.1 473.1,95.3 473.1,99C473.1,102.8 469.9,105.9 466.2,105.9C462.4,105.9 459.3,102.7 459.3,99ZM466.2,106C456.5,106 453.4,113.9 453.4,113.9L453.4,117.8L479,117.8L479,113.9C479,113.9 475.8,106 466.2,106Z" style="fill:white;fill-rule:nonzero;"/>
    </g>
</svg>
