<?xml version="1.0" encoding="UTF-8" standalone="no"?>
<!DOCTYPE svg PUBLIC "-//W3C//DTD SVG 1.1//EN" "http://www.w3.org/Graphics/SVG/1.1/DTD/svg11.dtd">
<svg width="100%" height="100%" viewBox="0 0 59 49" version="1.1" xmlns="http://www.w3.org/2000/svg" xmlns:xlink="http://www.w3.org/1999/xlink" xml:space="preserve" xmlns:serif="http://www.serif.com/" style="fill-rule:evenodd;clip-rule:evenodd;stroke-linejoin:round;stroke-miterlimit:1.41421;">
    <g transform="matrix(1,0,0,1,-360.9,-125.9)">
        <path d="M400.3,162.1C400.3,162.9 400,163.6 399.4,164.2C398.8,164.8 398.1,165.1 397.3,165.1C396.5,165.1 395.8,164.8 395.2,164.2C394.6,163.6 394.3,162.9 394.3,162.1C394.3,161.3 394.6,160.6 395.2,160C395.8,159.4 396.5,159.1 397.3,159.1C398.1,159.1 398.8,159.4 399.4,160C400,160.5 400.3,161.3 400.3,162.1ZM409.9,162.1C409.9,162.9 409.6,163.6 409,164.2C408.4,164.8 407.7,165.1 406.9,165.1C406.1,165.1 405.4,164.8 404.8,164.2C404.2,163.6 403.9,162.9 403.9,162.1C403.9,161.3 404.2,160.6 404.8,160C405.4,159.4 406.1,159.1 406.9,159.1C407.7,159.1 408.4,159.4 409,160C409.6,160.5 409.9,161.3 409.9,162.1ZM414.2,168.1L414.2,156C414.2,155.7 414.1,155.4 413.8,155.2C413.6,155 413.3,154.8 413,154.8L367,154.8C366.7,154.8 366.4,154.9 366.2,155.2C366,155.4 365.8,155.7 365.8,156L365.8,168.1C365.8,168.4 365.9,168.7 366.2,168.9C366.4,169.1 366.7,169.3 367,169.3L413,169.3C413.3,169.3 413.6,169.2 413.8,168.9C414,168.7 414.2,168.5 414.2,168.1ZM367.7,150L412.3,150L406.4,131.8C406.3,131.5 406.1,131.2 405.8,131C405.5,130.8 405.2,130.7 404.8,130.7L375.3,130.7C374.9,130.7 374.6,130.8 374.3,131C374,131.2 373.8,131.5 373.7,131.8L367.7,150ZM419,156L419,168.1C419,169.8 418.4,171.2 417.2,172.4C416,173.6 414.6,174.2 412.9,174.2L367,174.2C365.3,174.2 363.9,173.6 362.7,172.4C361.5,171.2 360.9,169.8 360.9,168.1L360.9,156C360.9,155.4 361.1,154.4 361.5,153.2L368.9,130.3C369.3,129 370.1,127.9 371.3,127.1C372.5,126.3 373.7,125.9 375.1,125.9L404.6,125.9C406,125.9 407.3,126.3 408.4,127.1C409.6,127.9 410.4,129 410.8,130.3L418.2,153.2C418.8,154.5 419,155.4 419,156Z" style="fill:white;fill-rule:nonzero;"/>
    </g>
</svg>
