<?xml version="1.0" encoding="UTF-8" standalone="no"?><!DOCTYPE svg PUBLIC "-//W3C//DTD SVG 1.1//EN" "http://www.w3.org/Graphics/SVG/1.1/DTD/svg11.dtd"><svg width="100%" height="100%" viewBox="0 0 35 58" version="1.1" xmlns="http://www.w3.org/2000/svg" xmlns:xlink="http://www.w3.org/1999/xlink" xml:space="preserve" xmlns:serif="http://www.serif.com/" style="fill-rule:evenodd;clip-rule:evenodd;stroke-linejoin:round;stroke-miterlimit:1.41421;"><path d="M28.4,0l-22.5,0c-3.3,0 -5.9,2.7 -5.9,5.9l0,46.2c0,3.3 2.7,5.9 5.9,5.9l22.5,0c3.3,0 5.9,-2.7 5.9,-5.9l0,-46.2c0,-3.2 -2.6,-5.9 -5.9,-5.9Zm-11.2,55.6c-2.3,0 -4.1,-1.3 -4.1,-3c0,-1.7 1.9,-3 4.1,-3c2.3,0 4.1,1.3 4.1,3c0,1.7 -1.9,3 -4.1,3Zm12.4,-8.8l-24.9,0l0,-39.1l24.9,0l0,39.1Z" style="fill:#fff;fill-rule:nonzero;"/></svg>