<?xml version="1.0" encoding="UTF-8" standalone="no"?>
<!DOCTYPE svg PUBLIC "-//W3C//DTD SVG 1.1//EN" "http://www.w3.org/Graphics/SVG/1.1/DTD/svg11.dtd">
<svg width="100%" height="100%" viewBox="0 0 56 58" version="1.1" xmlns="http://www.w3.org/2000/svg" xmlns:xlink="http://www.w3.org/1999/xlink" xml:space="preserve" xmlns:serif="http://www.serif.com/" style="fill-rule:evenodd;clip-rule:evenodd;stroke-linejoin:round;stroke-miterlimit:1.41421;">
    <g transform="matrix(1,0,0,1,-61,-121)">
        <path d="M115,132.8L105.2,132.8L105.2,123C105.2,121.9 104.3,121 103.2,121C102.1,121 101.2,121.9 101.2,123L101.2,132.8L91.4,132.8C90.3,132.8 89.4,133.7 89.4,134.8C89.4,135.9 90.3,136.8 91.4,136.8L101.2,136.8L101.2,146.6C101.2,147.7 102.1,148.6 103.2,148.6C104.3,148.6 105.2,147.7 105.2,146.6L105.2,136.8L115,136.8C116.1,136.8 117,135.9 117,134.8C117,133.7 116.1,132.8 115,132.8Z" style="fill:white;fill-rule:nonzero;"/>
        <path d="M69.7,150.7C69.7,145.2 74.3,140.6 79.8,140.6C85.3,140.6 89.9,145.2 89.9,150.7C89.9,156.2 85.3,160.8 79.8,160.8C74.3,160.8 69.7,156.2 69.7,150.7ZM79.8,161.6C65.6,161.6 61,173.2 61,173.2L61,179L98.6,179L98.6,173.2C98.6,173.2 94,161.6 79.8,161.6Z" style="fill:white;fill-rule:nonzero;"/>
    </g>
</svg>
