<?xml version="1.0" encoding="UTF-8" standalone="no"?>
<!DOCTYPE svg PUBLIC "-//W3C//DTD SVG 1.1//EN" "http://www.w3.org/Graphics/SVG/1.1/DTD/svg11.dtd">
<svg width="100%" height="100%" viewBox="0 0 51 59" version="1.1" xmlns="http://www.w3.org/2000/svg" xmlns:xlink="http://www.w3.org/1999/xlink" xml:space="preserve" xmlns:serif="http://www.serif.com/" style="fill-rule:evenodd;clip-rule:evenodd;stroke-linejoin:round;stroke-miterlimit:1.41421;">
    <g transform="matrix(1,0,0,1,-124.5,-180.425)">
        <path d="M165.4,200.2C164.9,199.7 164.2,199.7 163.7,200.2L147.6,216.3L138.8,207.5C138.3,207 137.6,207 137.1,207.5C136.6,208 136.6,208.7 137.1,209.2L146.8,218.9C147,219.1 147.3,219.3 147.7,219.3C148.1,219.3 148.3,219.2 148.6,218.9L165.5,202C165.8,201.4 165.8,200.7 165.4,200.2Z" style="fill:white;fill-rule:nonzero;"/>
        <path d="M174.5,187.8L150.3,180.5C150.1,180.4 149.8,180.4 149.6,180.5L125.4,187.8C124.9,188 124.5,188.4 124.5,189L124.5,215.6C124.5,226.3 140.8,235.8 149.5,238.5C149.6,238.5 149.7,238.6 149.9,238.6C150.1,238.6 150.1,238.6 150.3,238.5C159,235.8 175.3,226.3 175.3,215.6L175.3,189C175.4,188.4 175,187.9 174.5,187.8ZM173,215.5C173,224 159.6,232.9 150,236C140.5,232.9 127,224 127,215.5L127,189.8L150,182.9L173,189.8L173,215.5Z" style="fill:white;fill-rule:nonzero;"/>
    </g>
</svg>
