<?xml version="1.0" encoding="UTF-8" standalone="no"?><!DOCTYPE svg PUBLIC "-//W3C//DTD SVG 1.1//EN" "http://www.w3.org/Graphics/SVG/1.1/DTD/svg11.dtd"><svg width="100%" height="100%" viewBox="0 0 72 78" version="1.1" xmlns="http://www.w3.org/2000/svg" xmlns:xlink="http://www.w3.org/1999/xlink" xml:space="preserve" xmlns:serif="http://www.serif.com/" style="fill-rule:evenodd;clip-rule:evenodd;stroke-miterlimit:10;"><path id="layer_copy" d="M57.65,51.25c-2.1,-4.1 -4.9,-7.6 -8.5,-10.5c3,-3.3 4.9,-7.6 4.9,-12.4c0,-10.1 -8.3,-18.3 -18.4,-18.3c-10.1,0 -18.4,8.2 -18.4,18.3c0,4.8 1.9,9.2 4.9,12.4c-3.6,2.9 -6.4,6.5 -8.5,10.5c-2.4,4.7 -3.6,9.9 -3.6,15.5c0,0.7 0.5,1.2 1.2,1.2c0.7,0 1.2,-0.5 1.2,-1.2c0,-9.8 4.1,-18.3 11.4,-24.3c3.2,2.6 7.3,4.2 11.7,4.2c4.4,0 8.5,-1.6 11.7,-4.2c7.4,5.9 11.5,14.5 11.5,24.3c0,0.7 0.5,1.2 1.2,1.2c0.7,0 1.2,-0.5 1.2,-1.2c0.1,-5.6 -1.1,-10.8 -3.5,-15.5Zm-37.9,-23c0,-8.8 7.2,-15.9 16,-15.9c8.8,0 16,7.1 16,15.9c0,8.8 -7.2,15.9 -16,15.9c-8.8,0 -16,-7.1 -16,-15.9Z" style="fill:#fff;fill-rule:nonzero;stroke:#fff;stroke-width:2px;"/></svg>