<?xml version="1.0" encoding="UTF-8" standalone="no"?><!DOCTYPE svg PUBLIC "-//W3C//DTD SVG 1.1//EN" "http://www.w3.org/Graphics/SVG/1.1/DTD/svg11.dtd"><svg width="100%" height="100%" viewBox="0 0 58 50" version="1.1" xmlns="http://www.w3.org/2000/svg" xmlns:xlink="http://www.w3.org/1999/xlink" xml:space="preserve" xmlns:serif="http://www.serif.com/" style="fill-rule:evenodd;clip-rule:evenodd;stroke-linejoin:round;stroke-miterlimit:1.41421;"><path d="M38.7,24.9c0,-3.1 -2.5,-5.5 -5.5,-5.5c-3,0 -5.5,2.5 -5.5,5.5c0,3 2.5,5.5 5.5,5.5c3,0 5.5,-2.4 5.5,-5.5Zm-5.6,-24.9c-13.7,0 -24.9,11.1 -24.9,24.9l-8.2,0l11,11l11,-11l-8.3,0c0,-10.7 8.7,-19.3 19.3,-19.3c10.7,0 19.3,8.7 19.3,19.3c0,10.6 -8.7,19.3 -19.3,19.3c-4.2,0 -8,-1.3 -11.2,-3.6l-3.9,4c4.2,3.2 9.4,5.2 15.1,5.2c13.7,0 24.9,-11.1 24.9,-24.9c0,-13.8 -11,-24.9 -24.8,-24.9Z" style="fill:#fff;fill-rule:nonzero;"/></svg>