<?xml version="1.0" encoding="UTF-8" standalone="no"?><!DOCTYPE svg PUBLIC "-//W3C//DTD SVG 1.1//EN" "http://www.w3.org/Graphics/SVG/1.1/DTD/svg11.dtd"><svg width="100%" height="100%" viewBox="0 0 78 78" version="1.1" xmlns="http://www.w3.org/2000/svg" xmlns:xlink="http://www.w3.org/1999/xlink" xml:space="preserve" xmlns:serif="http://www.serif.com/" style="fill-rule:evenodd;clip-rule:evenodd;stroke-linecap:round;stroke-miterlimit:10;"><path d="M67.073,42.912l-4.6,4.4l0.5,6.4c0.1,0.9 -0.5,1.7 -1.3,1.9l-6.1,1.8l-2.5,5.9c-0.3,0.8 -1.2,1.3 -2.1,1.1l-6.3,-1.3l-4.9,4c-0.3,0.3 -0.7,0.4 -1.2,0.4c-0.4,0 -0.8,-0.1 -1.2,-0.4l-4.9,-4l-6.3,1.3c-0.8,0.2 -1.7,-0.3 -2.1,-1.1l-2.5,-5.9l-5.9,-1.8c-0.8,-0.2 -1.4,-1 -1.3,-1.9l0.5,-6.4l-4.6,-4.4c-0.6,-0.6 -0.7,-1.6 -0.3,-2.3l3.4,-5.4l-2,-6.1c-0.3,-0.8 0.1,-1.7 0.8,-2.2l5.5,-3.2l1,-6.3c0.1,-0.9 0.9,-1.5 1.7,-1.5l6.4,-0.3l3.8,-5.1c0.5,-0.7 1.5,-0.9 2.3,-0.6l5.8,2.7l5.8,-2.7c0.8,-0.4 1.7,-0.1 2.2,0.6l3.8,5.1l6.4,0.3c0.9,0 1.6,0.7 1.7,1.5l1,6.3l5.5,3.2c0.8,0.4 1.1,1.3 0.8,2.2l-2,6.1l3.4,5.4c0.6,0.8 0.5,1.7 -0.2,2.3Z" style="fill:none;stroke:#fff;stroke-width:1.94px;"/><path d="M27.473,35.812c-0.2,-0.7 -0.3,-1.1 -0.3,-3.7c0,-2.6 0.1,-3 0.3,-3.7c0.6,-1.7 2.1,-2.8 4.2,-2.8c2.1,0 3.6,1.1 4.2,2.8c0.2,0.7 0.3,1.1 0.3,3.7c0,2.6 -0.1,3 -0.3,3.7c-0.6,1.7 -2.1,2.8 -4.2,2.8c-2.1,0 -3.6,-1.1 -4.2,-2.8Zm6.1,-0.6c0.1,-0.4 0.2,-0.9 0.2,-3.1c0,-2.2 -0.1,-2.7 -0.2,-3.1c-0.3,-0.8 -1,-1.3 -2,-1.3c-1,0 -1.7,0.4 -2,1.3c-0.1,0.4 -0.2,0.9 -0.2,3.1c0,2.2 0.1,2.7 0.2,3.1c0.3,0.8 1,1.3 2,1.3c1,0 1.7,-0.5 2,-1.3Zm10.8,-9.3c0.1,-0.3 0.3,-0.4 0.6,-0.4l1.7,0c0.2,0 0.3,0.2 0.2,0.4l-14.2,24.6c-0.1,0.3 -0.3,0.4 -0.5,0.4l-1.7,0c-0.2,0 -0.3,-0.2 -0.2,-0.4l14.1,-24.6Zm-3.4,18.4c0,-2.6 0.1,-3 0.3,-3.7c0.6,-1.7 2.1,-2.8 4.2,-2.8c2.1,0 3.6,1.1 4.2,2.8c0.2,0.7 0.3,1.1 0.3,3.7c0,2.6 -0.1,3 -0.3,3.7c-0.6,1.7 -2.1,2.8 -4.2,2.8c-2.1,0 -3.6,-1.1 -4.2,-2.8c-0.2,-0.7 -0.3,-1.1 -0.3,-3.7Zm4.5,4.4c0.9,0 1.7,-0.4 2,-1.3c0.1,-0.4 0.2,-0.9 0.2,-3.1c0,-2.2 -0.1,-2.7 -0.2,-3.1c-0.3,-0.8 -1,-1.3 -2,-1.3c-1,0 -1.7,0.4 -2,1.3c-0.1,0.4 -0.2,0.9 -0.2,3.1c0,2.2 0.1,2.7 0.2,3.1c0.3,0.9 1,1.3 2,1.3Z" style="fill:#fff;fill-rule:nonzero;stroke:#fff;stroke-width:1px;stroke-linecap:butt;"/></svg>