<?xml version="1.0" encoding="UTF-8" standalone="no"?><!DOCTYPE svg PUBLIC "-//W3C//DTD SVG 1.1//EN" "http://www.w3.org/Graphics/SVG/1.1/DTD/svg11.dtd"><svg width="100%" height="100%" viewBox="0 0 49 58" version="1.1" xmlns="http://www.w3.org/2000/svg" xmlns:xlink="http://www.w3.org/1999/xlink" xml:space="preserve" xmlns:serif="http://www.serif.com/" style="fill-rule:evenodd;clip-rule:evenodd;stroke-linejoin:round;stroke-miterlimit:1.41421;"><path d="M8.4,15.7l0,8.5l-3.6,0c-2.7,0 -4.8,2.2 -4.8,4.8l0,24.2c0,2.7 2.2,4.8 4.8,4.8l38.7,0c2.7,0 4.8,-2.2 4.8,-4.8l0,-24.2c0,-2.7 -2.2,-4.8 -4.8,-4.8l-3.6,0l0,-8.5c-0.1,-8.7 -7.1,-15.7 -15.8,-15.7c-8.7,0 -15.7,7 -15.7,15.7Zm6,8.5l0,-8.5c0,-5.3 4.3,-9.7 9.7,-9.7c5.4,0 9.7,4.3 9.7,9.7l0,8.5l-19.4,0Zm4.9,13.3c0,-2.7 2.2,-4.8 4.8,-4.8c2.6,0 4.8,2.2 4.8,4.8c0,1.7 -0.9,3.2 -2.2,4.1c0,0 0.5,2.9 1,6.2c0,1 -0.8,1.8 -1.8,1.8l-3.6,0c-1,0 -1.8,-0.8 -1.8,-1.8l1,-6.2c-1.4,-0.9 -2.2,-2.4 -2.2,-4.1Z" style="fill:#fff;fill-rule:nonzero;"/></svg>