<?xml version="1.0" encoding="UTF-8" standalone="no"?>
<!DOCTYPE svg PUBLIC "-//W3C//DTD SVG 1.1//EN" "http://www.w3.org/Graphics/SVG/1.1/DTD/svg11.dtd">
<svg width="100%" height="100%" viewBox="0 0 53 59" version="1.1" xmlns="http://www.w3.org/2000/svg" xmlns:xlink="http://www.w3.org/1999/xlink" xml:space="preserve" xmlns:serif="http://www.serif.com/" style="fill-rule:evenodd;clip-rule:evenodd;stroke-linejoin:round;stroke-miterlimit:1.41421;">
    <g transform="matrix(1,0,0,1,-183.6,-60.9)">
        <path d="M210,84.7C195.2,84.7 183.6,79.5 183.6,72.8C183.6,66.1 195.2,60.9 210,60.9C224.8,60.9 236.4,66.1 236.4,72.8C236.4,79.5 224.8,84.7 210,84.7ZM210,63.6C198.8,63.6 186.3,67.4 186.3,72.8C186.3,78.2 198.8,82 210,82C221.2,82 233.7,78.2 233.7,72.8C233.7,67.4 221.2,63.6 210,63.6Z" style="fill:white;fill-rule:nonzero;"/>
        <path d="M210,95.3C195.2,95.3 183.6,90.1 183.6,83.4L183.6,72.9C183.6,72.2 184.2,71.6 184.9,71.6C185.6,71.6 186.2,72.2 186.2,72.9L186.2,83.4C186.2,88.8 198.7,92.6 209.9,92.6C221.1,92.6 233.6,88.8 233.6,83.4L233.6,72.9C233.6,72.2 234.2,71.6 234.9,71.6C235.6,71.6 236.2,72.2 236.2,72.9L236.2,83.4C236.4,90.1 224.8,95.3 210,95.3Z" style="fill:white;fill-rule:nonzero;"/>
        <path d="M210,107.1C195.2,107.1 183.6,101.9 183.6,95.2L183.6,83.4C183.6,82.7 184.2,82.1 184.9,82.1C185.6,82.1 186.2,82.7 186.2,83.4L186.2,95.3C186.2,100.7 198.7,104.5 209.9,104.5C221.1,104.5 233.6,100.7 233.6,95.3L233.6,83.4C233.6,82.7 234.2,82.1 234.9,82.1C235.6,82.1 236.2,82.7 236.2,83.4L236.2,95.3C236.4,101.9 224.8,107.1 210,107.1Z" style="fill:white;fill-rule:nonzero;"/>
        <path d="M210,119C195.2,119 183.6,113.8 183.6,107.1L183.6,95.3C183.6,94.6 184.2,94 184.9,94C185.6,94 186.2,94.6 186.2,95.3L186.2,107.2C186.2,112.6 198.7,116.4 209.9,116.4C221.1,116.4 233.6,112.6 233.6,107.2L233.6,95.3C233.6,94.6 234.2,94 234.9,94C235.6,94 236.2,94.6 236.2,95.3L236.2,107.2C236.4,113.8 224.8,119 210,119Z" style="fill:white;fill-rule:nonzero;"/>
    </g>
</svg>
