<?xml version="1.0" encoding="UTF-8" standalone="no"?>
<!DOCTYPE svg PUBLIC "-//W3C//DTD SVG 1.1//EN" "http://www.w3.org/Graphics/SVG/1.1/DTD/svg11.dtd">
<svg width="100%" height="100%" viewBox="0 0 66 67" version="1.1" xmlns="http://www.w3.org/2000/svg" xmlns:xlink="http://www.w3.org/1999/xlink" xml:space="preserve" xmlns:serif="http://www.serif.com/" style="fill-rule:evenodd;clip-rule:evenodd;stroke-miterlimit:10;">
    <g transform="matrix(1,0,0,1,-116.884,-56.9751)">
        <path d="M169.4,81.3C168.7,82 160.5,81.2 159.6,80.4C158.7,79.5 158,71.6 158.8,70.7C159.7,69.8 166.6,62.9 166.6,62.9C166.6,62.9 167.4,62 166.2,62C162.4,62 154.6,62.1 150.8,65.8L150,66.6C145.1,71.5 145.2,79.2 150,84.1L155.8,89.9C160.6,94.7 168.3,94.9 173.2,90L174,89.2C177.7,85.6 177.8,77.8 177.8,73.9C177.8,72.7 176.9,73.5 176.9,73.5C176.9,73.5 170,80.6 169.4,81.3Z" style="fill:white;fill-rule:nonzero;stroke:white;stroke-width:1px;"/>
        <path d="M149.1,82.5L124.2,105.3C122.4,107.1 120.1,111.8 124.2,115.9C128.3,120 133,117.7 134.8,115.9C134.8,115.9 156.8,91 157.4,91.2" style="fill:white;fill-rule:nonzero;stroke:white;stroke-width:1px;"/>
    </g>
</svg>
