<?xml version="1.0" encoding="UTF-8" standalone="no"?>
<!DOCTYPE svg PUBLIC "-//W3C//DTD SVG 1.1//EN" "http://www.w3.org/Graphics/SVG/1.1/DTD/svg11.dtd">
<svg width="100%" height="100%" viewBox="0 0 59 58" version="1.1" xmlns="http://www.w3.org/2000/svg" xmlns:xlink="http://www.w3.org/1999/xlink" xml:space="preserve" xmlns:serif="http://www.serif.com/" style="fill-rule:evenodd;clip-rule:evenodd;stroke-linejoin:round;stroke-miterlimit:1.41421;">
    <g transform="matrix(1,0,0,1,-240.9,-121.1)">
        <path d="M296.2,143.3L290.3,142.4C290.1,141.8 289.9,141.3 289.7,140.8L293.3,136C294.3,134.6 294.1,132.6 292.8,131.3L288.6,127.1C287.9,126.4 286.9,126 285.9,126C285.2,126 284.5,126.2 283.9,126.7L279.1,130.3C278.6,130.1 278,129.9 277.5,129.7L276.6,123.9C276.4,122.2 274.8,121.1 272.9,121.1L266.9,121.1C265.1,121.1 263.5,122.1 263.2,123.9L262.3,129.7C261.8,129.9 261.2,130.1 260.7,130.3L255.9,126.7C255.3,126.3 254.6,126 253.9,126C252.9,126 251.9,126.4 251.2,127.1L247,131.3C245.7,132.6 245.5,134.6 246.5,136L250.1,140.8C249.9,141.3 249.6,141.9 249.4,142.4L243.7,143.3C242,143.5 240.9,145.1 240.9,147L240.9,153C240.9,154.9 242,156.4 243.7,156.7L249.6,157.6C249.8,158.2 250,158.7 250.2,159.2L246.6,164C245.6,165.4 245.8,167.4 247.1,168.7L251.3,172.9C252,173.6 253,174 254,174C254.7,174 255.4,173.8 256,173.4L260.8,169.8C261.3,170 261.9,170.3 262.4,170.5L263.3,176.3C263.5,178 265.1,179.1 267,179.1L273,179.1C274.8,179.1 276.4,178 276.7,176.3L277.6,170.4C278.1,170.2 278.7,170 279.2,169.8L284,173.4C284.6,173.8 285.3,174.1 286,174.1C287,174.1 288,173.7 288.7,173L292.9,168.8C294.2,167.5 294.4,165.5 293.4,164.1L289.8,159.3C290,158.8 290.3,158.2 290.5,157.7L296.2,156.8C297.9,156.6 299,155 299,153.1L299,147.1C299,145 297.9,143.5 296.2,143.3ZM287.3,155.2C287,156.3 286.5,157.3 286,158.3L285.5,159.3L290.3,165.8L290.3,165.9L286.1,170.1L286,170.1L279.5,165.3L278.5,165.8C277.5,166.4 276.4,166.8 275.4,167.1L274.3,167.5L273.1,175.8C273.1,175.8 273.1,176 273,176L267,176C267,176 267,175.8 266.9,175.8L265.7,167.6L264.6,167.2C263.5,166.9 262.5,166.4 261.5,165.9L260.5,165.3L254,170.1L249.8,165.9L249.8,165.8L254.7,159.3L254.1,158.3C253.6,157.3 253.2,156.3 252.8,155.2L252.4,154.1L244.3,153L244,152.9L244,146.9L244.3,146.8L252.4,145.7L252.8,144.6C253.1,143.5 253.6,142.5 254.1,141.5L254.7,140.5L249.9,134L250,133.9L254.2,129.7L254.3,129.7L260.8,134.5L261.8,134C262.8,133.4 263.9,133 264.9,132.7L266,132.4L267.2,124.2C267.2,124.2 267.2,124.1 267.3,124.1L273.3,124.1C273.3,124.1 273.3,124.2 273.4,124.2L274.6,132.3L275.7,132.7C276.8,133 277.8,133.5 278.8,134L279.8,134.6L286.3,129.8L290.5,134L290.5,134.1L285.7,140.6L286.2,141.6C286.7,142.6 287.2,143.6 287.5,144.7L287.9,145.8L296,146.9L296.3,147L296.3,153L296,153.1L287.9,154.2L287.3,155.2Z" style="fill:white;fill-rule:nonzero;"/>
        <path d="M270,162.3C263,162.3 257.4,156.6 257.4,149.7C257.4,142.7 263.1,137.1 270,137.1C277,137.1 282.6,142.8 282.6,149.7C282.6,156.6 277,162.3 270,162.3ZM270,140C264.7,140 260.3,144.3 260.3,149.7C260.3,155 264.6,159.4 270,159.4C275.3,159.4 279.7,155.1 279.7,149.7C279.7,144.3 275.3,140 270,140Z" style="fill:white;fill-rule:nonzero;"/>
    </g>
</svg>
