<?xml version="1.0" encoding="UTF-8" standalone="no"?>
<!DOCTYPE svg PUBLIC "-//W3C//DTD SVG 1.1//EN" "http://www.w3.org/Graphics/SVG/1.1/DTD/svg11.dtd">
<svg width="100%" height="100%" viewBox="0 0 60 60" version="1.1" xmlns="http://www.w3.org/2000/svg" xmlns:xlink="http://www.w3.org/1999/xlink" xml:space="preserve" xmlns:serif="http://www.serif.com/" style="fill-rule:evenodd;clip-rule:evenodd;stroke-linecap:round;stroke-linejoin:round;">
    <g transform="matrix(1,0,0,1,-420,-120)">
        <circle cx="450" cy="150" r="29" style="fill:none;stroke:white;stroke-width:2px;"/>
        <path d="M450,125.5L450,129.7" style="fill:none;stroke:white;stroke-width:2px;"/>
        <path d="M443.7,126.3L444.8,130.4" style="fill:none;stroke:white;stroke-width:2px;"/>
        <path d="M437.7,128.8L439.9,132.5" style="fill:none;stroke:white;stroke-width:2px;"/>
        <path d="M432.7,132.7L435.7,135.7" style="fill:none;stroke:white;stroke-width:2px;"/>
        <path d="M428.8,137.7L432.5,139.9" style="fill:none;stroke:white;stroke-width:2px;"/>
        <path d="M471.2,162.3L467.5,160.1" style="fill:none;stroke:white;stroke-width:2px;"/>
        <path d="M426.3,143.7L430.4,144.8" style="fill:none;stroke:white;stroke-width:2px;"/>
        <path d="M473.7,156.3L469.6,155.2" style="fill:none;stroke:white;stroke-width:2px;"/>
        <path d="M425.5,150L429.7,150" style="fill:none;stroke:white;stroke-width:2px;"/>
        <path d="M474.5,150L470.3,150" style="fill:none;stroke:white;stroke-width:2px;"/>
        <path d="M426.3,156.3L430.4,155.2" style="fill:none;stroke:white;stroke-width:2px;"/>
        <path d="M473.7,143.7L469.6,144.8" style="fill:none;stroke:white;stroke-width:2px;"/>
        <path d="M428.8,162.3L432.5,160.1" style="fill:none;stroke:white;stroke-width:2px;"/>
        <path d="M471.2,137.7L467.5,139.9" style="fill:none;stroke:white;stroke-width:2px;"/>
        <path d="M467.3,132.7L464.3,135.7" style="fill:none;stroke:white;stroke-width:2px;"/>
        <path d="M462.3,128.8L460.1,132.5" style="fill:none;stroke:white;stroke-width:2px;"/>
        <path d="M456.3,126.3L455.2,130.4" style="fill:none;stroke:white;stroke-width:2px;"/>
        <circle cx="450" cy="149.9" r="2.1" style="fill:white;stroke:white;stroke-width:1px;stroke-linecap:butt;stroke-linejoin:miter;stroke-miterlimit:10;"/>
        <path d="M451.5,150.7L463.2,157.9" style="fill:none;stroke:white;stroke-width:2px;"/>
    </g>
</svg>
