<?xml version="1.0" encoding="UTF-8" standalone="no"?><!DOCTYPE svg PUBLIC "-//W3C//DTD SVG 1.1//EN" "http://www.w3.org/Graphics/SVG/1.1/DTD/svg11.dtd"><svg width="100%" height="100%" viewBox="0 0 79 75" version="1.1" xmlns="http://www.w3.org/2000/svg" xmlns:xlink="http://www.w3.org/1999/xlink" xml:space="preserve" xmlns:serif="http://www.serif.com/" style="fill-rule:evenodd;clip-rule:evenodd;stroke-miterlimit:10;"><path d="M62.05,31.85c0,-1.3 -1.1,-2.4 -2.4,-2.4c-1.3,0 -2.4,1.1 -2.4,2.4c0,0.6 0,17.5 0,18.1c0,1.3 1.1,2.4 2.4,2.4c1.3,0 2.4,-1.1 2.4,-2.4c0,-0.6 0,-17.6 0,-18.1Z" style="fill:none;stroke:#fff;stroke-width:2px;"/><path d="M42.65,64.45c1.3,0 2.4,-1.1 2.4,-2.4c0,-1.3 -1.1,-2.4 -2.4,-2.4c-0.6,0 -5.5,0 -6,0c-1.3,0 -2.4,1.1 -2.4,2.4c0,1.3 1.1,2.4 2.4,2.4c0.6,0 5.4,0 6,0Z" style="fill:none;stroke:#fff;stroke-width:2px;"/><path d="M18.55,30.55c0,-11.3 9.2,-20.5 20.5,-20.5c11.3,0 20.5,9.2 20.5,20.5" style="fill:none;stroke:#fff;stroke-width:2px;"/><path d="M62.05,31.85c3.3,0 6,4.1 6,9.1c0,5 -2.7,9.1 -6,9.1" style="fill:none;stroke:#fff;stroke-width:2px;"/><path d="M16.05,31.85c0,-1.3 1.1,-2.4 2.4,-2.4c1.3,0 2.4,1.1 2.4,2.4c0,0.6 0,17.5 0,18.1c0,1.3 -1.1,2.4 -2.4,2.4c-1.3,0 -2.4,-1.1 -2.4,-2.4c0,-0.6 0,-17.6 0,-18.1Z" style="fill:none;stroke:#fff;stroke-width:2px;"/><path d="M16.05,31.85c-3.3,0 -6,4.1 -6,9.1c0,5 2.7,9.1 6,9.1" style="fill:none;stroke:#fff;stroke-width:2px;"/><path d="M59.55,52.35c0,6 -3.6,9.7 -9.7,9.7l-4.8,0" style="fill:none;stroke:#fff;stroke-width:2px;"/></svg>