<?xml version="1.0" encoding="UTF-8" standalone="no"?><!DOCTYPE svg PUBLIC "-//W3C//DTD SVG 1.1//EN" "http://www.w3.org/Graphics/SVG/1.1/DTD/svg11.dtd"><svg width="100%" height="100%" viewBox="0 0 55 58" version="1.1" xmlns="http://www.w3.org/2000/svg" xmlns:xlink="http://www.w3.org/1999/xlink" xml:space="preserve" xmlns:serif="http://www.serif.com/" style="fill-rule:evenodd;clip-rule:evenodd;stroke-linejoin:round;stroke-miterlimit:1.41421;"><path d="M42.3,2.1c4,-0.7 8.1,-1.4 12.3,-2.1c-0.8,4.1 -1.6,8.2 -2.4,12.4c-0.7,-0.7 -1.5,-1.4 -2.1,-2.1c-0.4,-0.5 -0.7,-0.4 -1.1,0c-2.6,2.6 -5.3,5.2 -7.9,7.8c-4.7,4.6 -9.5,9.2 -14.2,13.8c-0.4,0.4 -0.6,0.3 -0.9,0c-2,-1.9 -4,-3.8 -5.9,-5.7c-0.4,-0.4 -0.6,-0.4 -1,0c-4.3,4.4 -8.7,8.7 -13,13c-0.4,0.4 -0.6,0.5 -1,0c-1.3,-1.3 -2.6,-2.5 -3.9,-3.8c-0.3,-0.3 -0.3,-0.4 0,-0.7c6.1,-6 12.1,-12 18.2,-18.1c0.4,-0.4 0.6,-0.2 0.9,0.1c2,1.8 3.9,3.7 5.9,5.6c0.3,0.3 0.5,0.3 0.8,0c5.4,-5.2 10.8,-10.4 16.2,-15.6c0.5,-0.5 0.9,-0.9 1.4,-1.3c0.5,-0.4 0.4,-0.6 0,-1c-0.8,-0.7 -1.5,-1.4 -2.2,-2.1c-0.2,0 -0.2,-0.1 -0.1,-0.2Z" style="fill:#fff;fill-rule:nonzero;"/><rect x="0" y="43.3" width="15.1" height="14.7" style="fill:#fff;"/><rect x="19.6" y="36.4" width="15.1" height="21.6" style="fill:#fff;"/><rect x="39.1" y="26.9" width="15.1" height="31.1" style="fill:#fff;"/></svg>