<?xml version="1.0" encoding="UTF-8" standalone="no"?>
<!DOCTYPE svg PUBLIC "-//W3C//DTD SVG 1.1//EN" "http://www.w3.org/Graphics/SVG/1.1/DTD/svg11.dtd">
<svg width="100%" height="100%" viewBox="0 0 58 58" version="1.1" xmlns="http://www.w3.org/2000/svg" xmlns:xlink="http://www.w3.org/1999/xlink" xml:space="preserve" xmlns:serif="http://www.serif.com/" style="fill-rule:evenodd;clip-rule:evenodd;stroke-linejoin:round;stroke-miterlimit:1.41421;">
    <g transform="matrix(1,0,0,1,-1,-121.1)">
        <path id="Livello_39" d="M56.7,151.1C56.4,157.6 53.9,163.6 49.7,168.1C47.4,166 44.8,164.2 41.9,162.9C42.7,159.3 43.2,155.4 43.3,151.1L56.7,151.1ZM56.7,148.9L43.3,148.9C43.2,143.9 42.6,139.3 41.5,135.2C44.1,134.1 46.5,132.6 48.7,130.8C53.4,135.5 56.5,141.8 56.7,148.9M47,129.3C45.1,130.8 43.1,132.1 40.9,133.1C39.6,129.2 37.9,126 35.8,123.8C40,124.8 43.8,126.7 47,129.3M38.9,133.9C36.4,134.8 33.8,135.3 31.1,135.4L31.1,123.4C34.3,124.1 37.1,128.1 38.9,133.9M31.1,137.6C34,137.5 36.9,136.9 39.5,136C40.5,139.8 41,144.2 41.1,148.9L31.1,148.9L31.1,137.6ZM31.1,151.1L41.1,151.1C41,155 40.6,158.7 39.9,162C37.1,161 34.1,160.4 31,160.3L31.1,151.1ZM31.1,162.5C34,162.6 36.9,163.2 39.5,164.2C37.7,171.1 34.7,175.9 31.1,176.7L31.1,162.5ZM35.8,176.1C38.1,173.7 40.1,169.8 41.4,165C43.9,166.2 46.2,167.7 48.2,169.6C44.8,172.8 40.5,175.1 35.8,176.1M28.9,176.6C25.4,175.8 22.3,171 20.5,164.1C23.1,163.1 25.9,162.5 28.9,162.4L28.9,176.6ZM28.9,160.3C25.8,160.4 22.8,161 20,162C19.3,158.7 18.9,155 18.8,151.1L28.8,151.1L28.9,160.3ZM28.9,148.9L18.9,148.9C19,144.2 19.6,139.8 20.5,136C23.2,136.9 26,137.5 28.9,137.6L28.9,148.9ZM28.9,135.4C26.2,135.3 23.5,134.8 21.1,133.9C22.9,128.1 25.7,124.1 28.9,123.4L28.9,135.4ZM24.2,123.9C22.2,126 20.4,129.2 19.1,133.2C16.9,132.2 14.8,130.9 13,129.4C16.2,126.7 20,124.8 24.2,123.9M11.3,130.8C13.4,132.6 15.9,134.1 18.5,135.2C17.4,139.2 16.7,143.9 16.7,148.9L3.3,148.9C3.5,141.8 6.6,135.5 11.3,130.8M3.3,151.1L16.7,151.1C16.8,155.3 17.3,159.3 18.1,162.9C15.2,164.2 12.6,166 10.3,168.1C6.1,163.5 3.5,157.6 3.3,151.1M11.8,169.6C13.8,167.7 16.1,166.2 18.6,165C19.9,169.8 21.9,173.7 24.2,176.1C19.5,175.1 15.2,172.8 11.8,169.6M59,151.1L59,149C58.5,133.8 46.3,121.6 31.1,121.1L29,121.1C13.8,121.6 1.6,133.8 1,148.9L1,151C1.3,158.1 4.1,164.6 8.6,169.6L8.7,169.6C13.8,175.1 21,178.6 29,178.9L31.1,178.9C39.1,178.6 46.3,175.1 51.4,169.6L51.5,169.6C55.9,164.7 58.7,158.2 59,151.1" style="fill:white;fill-rule:nonzero;"/>
    </g>
</svg>
